M48
; DRILL file {KiCad (6.0.11-0)} date Monday, February 13, 2023 at 11:09:06 AM
; FORMAT={2:4/ absolute / inch / suppress leading zeros}
; #@! TF.CreationDate,2023-02-13T11:09:06-07:00
; #@! TF.GenerationSoftware,Kicad,Pcbnew,(6.0.11-0)
; #@! TF.FileFunction,Plated,1,2,PTH
FMAT,2
INCH,TZ
; #@! TA.AperFunction,Plated,PTH,ViaDrill
T1C0.0157
; #@! TA.AperFunction,Plated,PTH,ComponentDrill
T2C0.0236
; #@! TA.AperFunction,Plated,PTH,ComponentDrill
T3C0.0295
; #@! TA.AperFunction,Plated,PTH,ComponentDrill
T4C0.0315
; #@! TA.AperFunction,Plated,PTH,ComponentDrill
T5C0.0354
; #@! TA.AperFunction,Plated,PTH,ComponentDrill
T6C0.0394
; #@! TA.AperFunction,Plated,PTH,ComponentDrill
T7C0.0433
; #@! TA.AperFunction,Plated,PTH,ComponentDrill
T8C0.0472
%
G90
G05
T1
X30230Y-18025
X32134Y-25356
X35895Y-21101
T2
X15580Y-31334
X16091Y-29365
T3
X31508Y-32856
X32008Y-32356
X32008Y-33356
X33508Y-24456
X34008Y-23956
X34008Y-24956
X39008Y-32956
X39508Y-32456
X39508Y-33456
X40908Y-24456
X41408Y-23956
X41408Y-24956
X46408Y-32956
X46908Y-32456
X46908Y-33456
X48308Y-24456
X48808Y-23956
X48808Y-24956
T4
X15780Y-24527
X15780Y-27527
X33008Y-29456
X33008Y-36256
X34008Y-31356
X34008Y-34356
X35008Y-21056
X35008Y-27856
X35008Y-31356
X35008Y-34356
X35009Y-19129
X36008Y-22956
X36008Y-25956
X36008Y-29456
X36008Y-31356
X36008Y-34356
X36008Y-36256
X37008Y-22956
X37008Y-25956
X38008Y-21056
X38008Y-22956
X38008Y-25956
X38008Y-27856
X38009Y-19129
X40508Y-29456
X40508Y-36356
X41508Y-31456
X41508Y-34456
X42408Y-21056
X42408Y-27856
X42508Y-31456
X42508Y-34456
X43408Y-22956
X43408Y-25956
X43508Y-29456
X43508Y-31456
X43508Y-34456
X43508Y-36356
X44408Y-22956
X44408Y-25956
X45408Y-21056
X45408Y-22956
X45408Y-25956
X45408Y-27856
X47908Y-29456
X47908Y-36556
X48908Y-31456
X48908Y-34456
X49808Y-21056
X49808Y-27856
X49908Y-31456
X49908Y-34456
X50608Y-16756
X50608Y-19756
X50808Y-22956
X50808Y-25956
X50908Y-29456
X50908Y-31456
X50908Y-34456
X50908Y-36556
X51808Y-22956
X51808Y-25956
X52508Y-16756
X52508Y-19756
X52808Y-21056
X52808Y-22956
X52808Y-25956
X52808Y-27856
T5
X41123Y-18224
X42698Y-18224
X44272Y-18224
X47608Y-17456
X47608Y-18456
X47608Y-20156
X47608Y-21156
T6
X17508Y-16256
X17508Y-17256
X18508Y-16256
X18508Y-17256
X19508Y-16256
X19508Y-17256
X20508Y-16256
X20508Y-17256
X21508Y-16256
X21508Y-17256
X22508Y-16256
X22508Y-17256
X23508Y-16256
X23508Y-17256
X24508Y-16256
X24508Y-17256
X25508Y-16256
X25508Y-17256
X25769Y-26609
X26508Y-16256
X26508Y-17256
X27508Y-16256
X27508Y-17256
X28508Y-16256
X28508Y-17256
X29508Y-16256
X29508Y-17256
X30508Y-16256
X30508Y-17256
X30769Y-29609
X31343Y-20263
X31343Y-22231
X31508Y-16256
X31508Y-17256
X32508Y-16256
X32508Y-17256
X33508Y-16256
X33508Y-17256
X34508Y-16256
X34508Y-17256
X35508Y-16256
X35508Y-17256
X36508Y-16256
X36508Y-17256
T7
X18631Y-26054
X18670Y-30188
X19308Y-35856
X20308Y-35856
X21969Y-23228
X22639Y-21771
X22765Y-26054
X22765Y-30188
X23308Y-23228
X23408Y-35856
X23977Y-21771
X24408Y-35856
X24646Y-23228
X25408Y-35856
X26408Y-35856
X27408Y-35856
X28408Y-35856
X29408Y-35856
T8
X17517Y-20279
X17517Y-22247
X27107Y-21172
X27107Y-23172
X40335Y-16550
X40335Y-18913
X45060Y-16550
X45060Y-18913
T0
M30
