%TF.GenerationSoftware,KiCad,Pcbnew,(6.0.11-0)*%
%TF.CreationDate,2023-02-13T11:09:09-07:00*%
%TF.ProjectId,Pi20,50693230-2e6b-4696-9361-645f70636258,rev?*%
%TF.SameCoordinates,Original*%
%TF.FileFunction,Copper,L2,Bot*%
%TF.FilePolarity,Positive*%
%FSLAX46Y46*%
G04 Gerber Fmt 4.6, Leading zero omitted, Abs format (unit mm)*
G04 Created by KiCad (PCBNEW (6.0.11-0)) date 2023-02-13 11:09:09*
%MOMM*%
%LPD*%
G01*
G04 APERTURE LIST*
G04 Aperture macros list*
%AMRoundRect*
0 Rectangle with rounded corners*
0 $1 Rounding radius*
0 $2 $3 $4 $5 $6 $7 $8 $9 X,Y pos of 4 corners*
0 Add a 4 corners polygon primitive as box body*
4,1,4,$2,$3,$4,$5,$6,$7,$8,$9,$2,$3,0*
0 Add four circle primitives for the rounded corners*
1,1,$1+$1,$2,$3*
1,1,$1+$1,$4,$5*
1,1,$1+$1,$6,$7*
1,1,$1+$1,$8,$9*
0 Add four rect primitives between the rounded corners*
20,1,$1+$1,$2,$3,$4,$5,0*
20,1,$1+$1,$4,$5,$6,$7,0*
20,1,$1+$1,$6,$7,$8,$9,0*
20,1,$1+$1,$8,$9,$2,$3,0*%
G04 Aperture macros list end*
%TA.AperFunction,ComponentPad*%
%ADD10C,2.400000*%
%TD*%
%TA.AperFunction,ComponentPad*%
%ADD11R,2.400000X2.400000*%
%TD*%
%TA.AperFunction,ComponentPad*%
%ADD12C,2.000000*%
%TD*%
%TA.AperFunction,ComponentPad*%
%ADD13R,2.000000X2.000000*%
%TD*%
%TA.AperFunction,ComponentPad*%
%ADD14C,2.100000*%
%TD*%
%TA.AperFunction,ComponentPad*%
%ADD15R,2.100000X2.100000*%
%TD*%
%TA.AperFunction,ComponentPad*%
%ADD16O,1.700000X1.700000*%
%TD*%
%TA.AperFunction,ComponentPad*%
%ADD17R,1.700000X1.700000*%
%TD*%
%TA.AperFunction,ComponentPad*%
%ADD18C,2.200000*%
%TD*%
%TA.AperFunction,ComponentPad*%
%ADD19R,2.200000X2.200000*%
%TD*%
%TA.AperFunction,ComponentPad*%
%ADD20O,2.400000X2.400000*%
%TD*%
%TA.AperFunction,ComponentPad*%
%ADD21C,1.800000*%
%TD*%
%TA.AperFunction,ComponentPad*%
%ADD22R,1.800000X1.800000*%
%TD*%
%TA.AperFunction,ComponentPad*%
%ADD23RoundRect,0.275000X0.625000X-0.275000X0.625000X0.275000X-0.625000X0.275000X-0.625000X-0.275000X0*%
%TD*%
%TA.AperFunction,ComponentPad*%
%ADD24R,1.800000X1.100000*%
%TD*%
%TA.AperFunction,ComponentPad*%
%ADD25C,1.600000*%
%TD*%
%TA.AperFunction,ComponentPad*%
%ADD26O,1.600000X1.600000*%
%TD*%
%TA.AperFunction,ComponentPad*%
%ADD27C,1.700000*%
%TD*%
%TA.AperFunction,ComponentPad*%
%ADD28O,1.800000X1.800000*%
%TD*%
%TA.AperFunction,ComponentPad*%
%ADD29O,1.600000X2.400000*%
%TD*%
%TA.AperFunction,ComponentPad*%
%ADD30R,1.600000X2.400000*%
%TD*%
%TA.AperFunction,ViaPad*%
%ADD31C,0.800000*%
%TD*%
%TA.AperFunction,Conductor*%
%ADD32C,0.250000*%
%TD*%
%TA.AperFunction,Conductor*%
%ADD33C,0.497800*%
%TD*%
G04 APERTURE END LIST*
D10*
%TO.P,C1,2*%
%TO.N,GND*%
X44492000Y-51508000D03*
D11*
%TO.P,C1,1*%
%TO.N,+24V*%
X44492000Y-56508000D03*
%TD*%
D12*
%TO.P,C2,2*%
%TO.N,GND*%
X79612000Y-51468000D03*
D13*
%TO.P,C2,1*%
%TO.N,+5V*%
X79612000Y-56468000D03*
%TD*%
D14*
%TO.P,J1,2,Pin_2*%
%TO.N,Common*%
X51582000Y-91074000D03*
D15*
%TO.P,J1,1,Pin_1*%
%TO.N,Net-(F1-Pad2)*%
X49042000Y-91074000D03*
%TD*%
D14*
%TO.P,J2,7,Pin_7*%
%TO.N,Common*%
X74696000Y-91074000D03*
%TO.P,J2,6,Pin_6*%
%TO.N,Zone6*%
X72156000Y-91074000D03*
%TO.P,J2,5,Pin_5*%
%TO.N,Zone5*%
X69616000Y-91074000D03*
%TO.P,J2,4,Pin_4*%
%TO.N,Zone4*%
X67076000Y-91074000D03*
%TO.P,J2,3,Pin_3*%
%TO.N,Zone3*%
X64536000Y-91074000D03*
%TO.P,J2,2,Pin_2*%
%TO.N,Zone2*%
X61996000Y-91074000D03*
D15*
%TO.P,J2,1,Pin_1*%
%TO.N,Zone1*%
X59456000Y-91074000D03*
%TD*%
D16*
%TO.P,J3,40,Pin_40*%
%TO.N,unconnected-(J3-Pad40)*%
X92730000Y-41290000D03*
%TO.P,J3,39,Pin_39*%
%TO.N,GND*%
X92730000Y-43830000D03*
%TO.P,J3,38,Pin_38*%
%TO.N,unconnected-(J3-Pad38)*%
X90190000Y-41290000D03*
%TO.P,J3,37,Pin_37*%
%TO.N,unconnected-(J3-Pad37)*%
X90190000Y-43830000D03*
%TO.P,J3,36,Pin_36*%
%TO.N,unconnected-(J3-Pad36)*%
X87650000Y-41290000D03*
%TO.P,J3,35,Pin_35*%
%TO.N,unconnected-(J3-Pad35)*%
X87650000Y-43830000D03*
%TO.P,J3,34,Pin_34*%
%TO.N,GND*%
X85110000Y-41290000D03*
%TO.P,J3,33,Pin_33*%
%TO.N,unconnected-(J3-Pad33)*%
X85110000Y-43830000D03*
%TO.P,J3,32,Pin_32*%
%TO.N,unconnected-(J3-Pad32)*%
X82570000Y-41290000D03*
%TO.P,J3,31,Pin_31*%
%TO.N,unconnected-(J3-Pad31)*%
X82570000Y-43830000D03*
%TO.P,J3,30,Pin_30*%
%TO.N,GND*%
X80030000Y-41290000D03*
%TO.P,J3,29,Pin_29*%
%TO.N,unconnected-(J3-Pad29)*%
X80030000Y-43830000D03*
%TO.P,J3,28,Pin_28*%
%TO.N,unconnected-(J3-Pad28)*%
X77490000Y-41290000D03*
%TO.P,J3,27,Pin_27*%
%TO.N,unconnected-(J3-Pad27)*%
X77490000Y-43830000D03*
%TO.P,J3,26,Pin_26*%
%TO.N,unconnected-(J3-Pad26)*%
X74950000Y-41290000D03*
%TO.P,J3,25,Pin_25*%
%TO.N,GND*%
X74950000Y-43830000D03*
%TO.P,J3,24,Pin_24*%
%TO.N,unconnected-(J3-Pad24)*%
X72410000Y-41290000D03*
%TO.P,J3,23,Pin_23*%
%TO.N,Ctrl_Zone6*%
X72410000Y-43830000D03*
%TO.P,J3,22,Pin_22*%
%TO.N,unconnected-(J3-Pad22)*%
X69870000Y-41290000D03*
%TO.P,J3,21,Pin_21*%
%TO.N,Ctrl_Zone5*%
X69870000Y-43830000D03*
%TO.P,J3,20,Pin_20*%
%TO.N,GND*%
X67330000Y-41290000D03*
%TO.P,J3,19,Pin_19*%
%TO.N,Ctrl_Zone4*%
X67330000Y-43830000D03*
%TO.P,J3,18,Pin_18*%
%TO.N,unconnected-(J3-Pad18)*%
X64790000Y-41290000D03*
%TO.P,J3,17,Pin_17*%
%TO.N,+3V3*%
X64790000Y-43830000D03*
%TO.P,J3,16,Pin_16*%
%TO.N,unconnected-(J3-Pad16)*%
X62250000Y-41290000D03*
%TO.P,J3,15,Pin_15*%
%TO.N,Ctrl_Zone3*%
X62250000Y-43830000D03*
%TO.P,J3,14,Pin_14*%
%TO.N,GND*%
X59710000Y-41290000D03*
%TO.P,J3,13,Pin_13*%
%TO.N,Ctrl_Zone2*%
X59710000Y-43830000D03*
%TO.P,J3,12,Pin_12*%
%TO.N,unconnected-(J3-Pad12)*%
X57170000Y-41290000D03*
%TO.P,J3,11,Pin_11*%
%TO.N,Ctrl_Zone1*%
X57170000Y-43830000D03*
%TO.P,J3,10,Pin_10*%
%TO.N,unconnected-(J3-Pad10)*%
X54630000Y-41290000D03*
%TO.P,J3,9,Pin_9*%
%TO.N,GND*%
X54630000Y-43830000D03*
%TO.P,J3,8,Pin_8*%
%TO.N,unconnected-(J3-Pad8)*%
X52090000Y-41290000D03*
%TO.P,J3,7,Pin_7*%
%TO.N,unconnected-(J3-Pad7)*%
X52090000Y-43830000D03*
%TO.P,J3,6,Pin_6*%
%TO.N,GND*%
X49550000Y-41290000D03*
%TO.P,J3,5,Pin_5*%
%TO.N,unconnected-(J3-Pad5)*%
X49550000Y-43830000D03*
%TO.P,J3,4,Pin_4*%
%TO.N,+5V*%
X47010000Y-41290000D03*
%TO.P,J3,3,Pin_3*%
%TO.N,unconnected-(J3-Pad3)*%
X47010000Y-43830000D03*
%TO.P,J3,2,Pin_2*%
%TO.N,+5V*%
X44470000Y-41290000D03*
D17*
%TO.P,J3,1,Pin_1*%
%TO.N,+3V3*%
X44470000Y-43830000D03*
%TD*%
D18*
%TO.P,D1,4*%
%TO.N,+24VAC*%
X57822000Y-66178000D03*
%TO.P,D1,3,-*%
%TO.N,GND*%
X57822000Y-76678000D03*
%TO.P,D1,2*%
%TO.N,Common*%
X47422000Y-76678000D03*
D19*
%TO.P,D1,1,+*%
%TO.N,+24V*%
X47322000Y-66178000D03*
%TD*%
D20*
%TO.P,D2,2,A*%
%TO.N,GND*%
X68852000Y-53778000D03*
D11*
%TO.P,D2,1,K*%
%TO.N,Net-(D2-Pad1)*%
X68852000Y-58858000D03*
%TD*%
D21*
%TO.P,D4,2,A*%
%TO.N,Net-(D4-Pad2)*%
X120924000Y-51196000D03*
D22*
%TO.P,D4,1,K*%
%TO.N,GND*%
X120924000Y-53736000D03*
%TD*%
D23*
%TO.P,D5,3,A1*%
%TO.N,Zone1*%
X124372000Y-60848000D03*
%TO.P,D5,2,G*%
%TO.N,Net-(D5-Pad2)*%
X122302000Y-62118000D03*
D24*
%TO.P,D5,1,A2*%
%TO.N,+24VAC*%
X124372000Y-63388000D03*
%TD*%
D23*
%TO.P,D6,3,A1*%
%TO.N,Zone4*%
X119546000Y-82438000D03*
%TO.P,D6,2,G*%
%TO.N,Net-(D6-Pad2)*%
X117476000Y-83708000D03*
D24*
%TO.P,D6,1,A2*%
%TO.N,+24VAC*%
X119546000Y-84978000D03*
%TD*%
D23*
%TO.P,D7,3,A1*%
%TO.N,Zone2*%
X105576000Y-60848000D03*
%TO.P,D7,2,G*%
%TO.N,Net-(D7-Pad2)*%
X103506000Y-62118000D03*
D24*
%TO.P,D7,1,A2*%
%TO.N,+24VAC*%
X105576000Y-63388000D03*
%TD*%
D23*
%TO.P,D8,3,A1*%
%TO.N,Zone5*%
X100750000Y-82438000D03*
%TO.P,D8,2,G*%
%TO.N,Net-(D8-Pad2)*%
X98680000Y-83708000D03*
D24*
%TO.P,D8,1,A2*%
%TO.N,+24VAC*%
X100750000Y-84978000D03*
%TD*%
D23*
%TO.P,D9,3,A1*%
%TO.N,Zone3*%
X86780000Y-60848000D03*
%TO.P,D9,2,G*%
%TO.N,Net-(D9-Pad2)*%
X84710000Y-62118000D03*
D24*
%TO.P,D9,1,A2*%
%TO.N,+24VAC*%
X86780000Y-63388000D03*
%TD*%
D23*
%TO.P,D10,3,A1*%
%TO.N,Zone6*%
X81700000Y-82184000D03*
%TO.P,D10,2,G*%
%TO.N,Net-(D10-Pad2)*%
X79630000Y-83454000D03*
D24*
%TO.P,D10,1,A2*%
%TO.N,+24VAC*%
X81700000Y-84724000D03*
%TD*%
D25*
%TO.P,F1,2*%
%TO.N,Net-(F1-Pad2)*%
X39572000Y-79588000D03*
%TO.P,F1,1*%
%TO.N,+24VAC*%
X40872000Y-74588000D03*
%TD*%
D12*
%TO.P,L1,2,2*%
%TO.N,Net-(D2-Pad1)*%
X78152000Y-75208000D03*
%TO.P,L1,1,1*%
%TO.N,+5V*%
X65452000Y-67588000D03*
%TD*%
D26*
%TO.P,R2,2*%
%TO.N,Net-(D4-Pad2)*%
X133370000Y-42560000D03*
D25*
%TO.P,R2,1*%
%TO.N,+3V3*%
X133370000Y-50180000D03*
%TD*%
D26*
%TO.P,R3,2*%
%TO.N,Ctrl_Zone1*%
X126512000Y-53482000D03*
D25*
%TO.P,R3,1*%
%TO.N,Net-(R3-Pad1)*%
X134132000Y-53482000D03*
%TD*%
D26*
%TO.P,R4,2*%
%TO.N,Net-(R4-Pad2)*%
X134132000Y-70754000D03*
D25*
%TO.P,R4,1*%
%TO.N,+24VAC*%
X126512000Y-70754000D03*
%TD*%
D26*
%TO.P,R5,2*%
%TO.N,Ctrl_Zone4*%
X121686000Y-74818000D03*
D25*
%TO.P,R5,1*%
%TO.N,Net-(R5-Pad1)*%
X129306000Y-74818000D03*
%TD*%
D26*
%TO.P,R6,2*%
%TO.N,Net-(R6-Pad2)*%
X129306000Y-92852000D03*
D25*
%TO.P,R6,1*%
%TO.N,+24VAC*%
X121686000Y-92852000D03*
%TD*%
D26*
%TO.P,R7,2*%
%TO.N,Ctrl_Zone2*%
X107716000Y-53482000D03*
D25*
%TO.P,R7,1*%
%TO.N,Net-(R7-Pad1)*%
X115336000Y-53482000D03*
%TD*%
D26*
%TO.P,R8,2*%
%TO.N,Net-(R8-Pad2)*%
X115336000Y-70754000D03*
D25*
%TO.P,R8,1*%
%TO.N,+24VAC*%
X107716000Y-70754000D03*
%TD*%
D26*
%TO.P,R9,2*%
%TO.N,Ctrl_Zone5*%
X102890000Y-74818000D03*
D25*
%TO.P,R9,1*%
%TO.N,Net-(R9-Pad1)*%
X110510000Y-74818000D03*
%TD*%
D26*
%TO.P,R10,2*%
%TO.N,Net-(R10-Pad2)*%
X110510000Y-92344000D03*
D25*
%TO.P,R10,1*%
%TO.N,+24VAC*%
X102890000Y-92344000D03*
%TD*%
D26*
%TO.P,R11,2*%
%TO.N,Ctrl_Zone3*%
X88920000Y-53482000D03*
D25*
%TO.P,R11,1*%
%TO.N,Net-(R11-Pad1)*%
X96540000Y-53482000D03*
%TD*%
D26*
%TO.P,R12,2*%
%TO.N,Net-(R12-Pad2)*%
X96540000Y-70754000D03*
D25*
%TO.P,R12,1*%
%TO.N,+24VAC*%
X88920000Y-70754000D03*
%TD*%
D26*
%TO.P,R13,2*%
%TO.N,Ctrl_Zone6*%
X83840000Y-74818000D03*
D25*
%TO.P,R13,1*%
%TO.N,Net-(R13-Pad1)*%
X91460000Y-74818000D03*
%TD*%
D26*
%TO.P,R14,2*%
%TO.N,Net-(R14-Pad2)*%
X91460000Y-92090000D03*
D25*
%TO.P,R14,1*%
%TO.N,+24VAC*%
X83840000Y-92090000D03*
%TD*%
D27*
%TO.P,SW1,3,C*%
%TO.N,GND*%
X104452000Y-46288000D03*
%TO.P,SW1,2,B*%
%TO.N,Net-(SW1-Pad2)*%
X108452000Y-46288000D03*
%TO.P,SW1,1,A*%
%TO.N,Net-(R15-Pad2)*%
X112452000Y-46288000D03*
D12*
%TO.P,SW1,*%
%TO.N,*%
X114452000Y-48038000D03*
X114452000Y-42038000D03*
X102452000Y-42038000D03*
X102452000Y-48038000D03*
%TD*%
D28*
%TO.P,U1,5,~{ON}/OFF*%
%TO.N,Net-(SW1-Pad2)*%
X62602000Y-58998000D03*
%TO.P,U1,4,FB*%
%TO.N,+5V*%
X60902000Y-55298000D03*
%TO.P,U1,3,GND*%
%TO.N,GND*%
X59202000Y-58998000D03*
%TO.P,U1,2,OUT*%
%TO.N,Net-(D2-Pad1)*%
X57502000Y-55298000D03*
D22*
%TO.P,U1,1,VIN*%
%TO.N,+24V*%
X55802000Y-58998000D03*
%TD*%
D29*
%TO.P,U2,6*%
%TO.N,Net-(R4-Pad2)*%
X134132000Y-65928000D03*
%TO.P,U2,5,NC*%
%TO.N,unconnected-(U2-Pad5)*%
X131592000Y-65928000D03*
%TO.P,U2,4*%
%TO.N,Net-(D5-Pad2)*%
X129052000Y-65928000D03*
%TO.P,U2,3,NC*%
%TO.N,unconnected-(U2-Pad3)*%
X129052000Y-58308000D03*
%TO.P,U2,2*%
%TO.N,GND*%
X131592000Y-58308000D03*
D30*
%TO.P,U2,1*%
%TO.N,Net-(R3-Pad1)*%
X134132000Y-58308000D03*
%TD*%
D29*
%TO.P,U3,6*%
%TO.N,Net-(R6-Pad2)*%
X129306000Y-87518000D03*
%TO.P,U3,5,NC*%
%TO.N,unconnected-(U3-Pad5)*%
X126766000Y-87518000D03*
%TO.P,U3,4*%
%TO.N,Net-(D6-Pad2)*%
X124226000Y-87518000D03*
%TO.P,U3,3,NC*%
%TO.N,unconnected-(U3-Pad3)*%
X124226000Y-79898000D03*
%TO.P,U3,2*%
%TO.N,GND*%
X126766000Y-79898000D03*
D30*
%TO.P,U3,1*%
%TO.N,Net-(R5-Pad1)*%
X129306000Y-79898000D03*
%TD*%
D29*
%TO.P,U4,6*%
%TO.N,Net-(R8-Pad2)*%
X115336000Y-65928000D03*
%TO.P,U4,5,NC*%
%TO.N,unconnected-(U4-Pad5)*%
X112796000Y-65928000D03*
%TO.P,U4,4*%
%TO.N,Net-(D7-Pad2)*%
X110256000Y-65928000D03*
%TO.P,U4,3,NC*%
%TO.N,unconnected-(U4-Pad3)*%
X110256000Y-58308000D03*
%TO.P,U4,2*%
%TO.N,GND*%
X112796000Y-58308000D03*
D30*
%TO.P,U4,1*%
%TO.N,Net-(R7-Pad1)*%
X115336000Y-58308000D03*
%TD*%
D29*
%TO.P,U5,6*%
%TO.N,Net-(R10-Pad2)*%
X110510000Y-87518000D03*
%TO.P,U5,5,NC*%
%TO.N,unconnected-(U5-Pad5)*%
X107970000Y-87518000D03*
%TO.P,U5,4*%
%TO.N,Net-(D8-Pad2)*%
X105430000Y-87518000D03*
%TO.P,U5,3,NC*%
%TO.N,unconnected-(U5-Pad3)*%
X105430000Y-79898000D03*
%TO.P,U5,2*%
%TO.N,GND*%
X107970000Y-79898000D03*
D30*
%TO.P,U5,1*%
%TO.N,Net-(R9-Pad1)*%
X110510000Y-79898000D03*
%TD*%
D29*
%TO.P,U6,6*%
%TO.N,Net-(R12-Pad2)*%
X96540000Y-65928000D03*
%TO.P,U6,5,NC*%
%TO.N,unconnected-(U6-Pad5)*%
X94000000Y-65928000D03*
%TO.P,U6,4*%
%TO.N,Net-(D9-Pad2)*%
X91460000Y-65928000D03*
%TO.P,U6,3,NC*%
%TO.N,unconnected-(U6-Pad3)*%
X91460000Y-58308000D03*
%TO.P,U6,2*%
%TO.N,GND*%
X94000000Y-58308000D03*
D30*
%TO.P,U6,1*%
%TO.N,Net-(R11-Pad1)*%
X96540000Y-58308000D03*
%TD*%
D29*
%TO.P,U7,6*%
%TO.N,Net-(R14-Pad2)*%
X91460000Y-87264000D03*
%TO.P,U7,5,NC*%
%TO.N,unconnected-(U7-Pad5)*%
X88920000Y-87264000D03*
%TO.P,U7,4*%
%TO.N,Net-(D10-Pad2)*%
X86380000Y-87264000D03*
%TO.P,U7,3,NC*%
%TO.N,unconnected-(U7-Pad3)*%
X86380000Y-79644000D03*
%TO.P,U7,2*%
%TO.N,GND*%
X88920000Y-79644000D03*
D30*
%TO.P,U7,1*%
%TO.N,Net-(R13-Pad1)*%
X91460000Y-79644000D03*
%TD*%
D21*
%TO.P,D3,2,A*%
%TO.N,Net-(D3-Pad2)*%
X120924000Y-44338000D03*
D22*
%TO.P,D3,1,K*%
%TO.N,GND*%
X120924000Y-46878000D03*
%TD*%
D26*
%TO.P,R1,2*%
%TO.N,Net-(D3-Pad2)*%
X128544000Y-42560000D03*
D25*
%TO.P,R1,1*%
%TO.N,+5V*%
X128544000Y-50180000D03*
%TD*%
D26*
%TO.P,R15,2*%
%TO.N,Net-(R15-Pad2)*%
X40082000Y-62298000D03*
D25*
%TO.P,R15,1*%
%TO.N,+24V*%
X40082000Y-69918000D03*
%TD*%
D26*
%TO.P,R16,2*%
%TO.N,GND*%
X88922000Y-48588000D03*
D25*
%TO.P,R16,1*%
%TO.N,Net-(R15-Pad2)*%
X96542000Y-48588000D03*
%TD*%
D31*
%TO.N,Ctrl_Zone2*%
X91173700Y-53597700D03*
%TO.N,Ctrl_Zone4*%
X76784300Y-45783600D03*
%TO.N,Ctrl_Zone5*%
X81620100Y-64404800D03*
%TD*%
D32*
%TO.N,+24V*%
X42156700Y-69918000D02*
X45896700Y-66178000D01*
X40082000Y-69918000D02*
X42156700Y-69918000D01*
X47322000Y-66178000D02*
X46609400Y-66178000D01*
X46609400Y-66178000D02*
X45896700Y-66178000D01*
X46609400Y-60150700D02*
X44492000Y-58033300D01*
X46609400Y-66178000D02*
X46609400Y-60150700D01*
X44492000Y-56508000D02*
X44492000Y-58033300D01*
%TO.N,Net-(R14-Pad2)*%
X91460000Y-87264000D02*
X91460000Y-92090000D01*
%TO.N,Net-(R13-Pad1)*%
X91460000Y-79644000D02*
X91460000Y-74818000D01*
%TO.N,Net-(R12-Pad2)*%
X96540000Y-65928000D02*
X96540000Y-70754000D01*
%TO.N,Net-(R10-Pad2)*%
X110510000Y-87518000D02*
X110510000Y-92344000D01*
%TO.N,Net-(R9-Pad1)*%
X110510000Y-79898000D02*
X110510000Y-74818000D01*
%TO.N,Net-(R8-Pad2)*%
X115336000Y-65928000D02*
X115336000Y-70754000D01*
%TO.N,Net-(R6-Pad2)*%
X129306000Y-87518000D02*
X129306000Y-92852000D01*
%TO.N,Net-(R5-Pad1)*%
X129306000Y-79898000D02*
X129306000Y-74818000D01*
%TO.N,Net-(R4-Pad2)*%
X134132000Y-65928000D02*
X134132000Y-70754000D01*
D33*
%TO.N,Net-(F1-Pad2)*%
X49042000Y-89058000D02*
X49042000Y-91074000D01*
X39572000Y-79588000D02*
X49042000Y-89058000D01*
D32*
%TO.N,Net-(D10-Pad2)*%
X84095300Y-83454000D02*
X80030000Y-83454000D01*
X86380000Y-85738700D02*
X84095300Y-83454000D01*
X86380000Y-87264000D02*
X86380000Y-85738700D01*
%TO.N,Net-(D9-Pad2)*%
X89175300Y-62118000D02*
X85110000Y-62118000D01*
X91460000Y-64402700D02*
X89175300Y-62118000D01*
X91460000Y-65928000D02*
X91460000Y-64402700D01*
%TO.N,Net-(D2-Pad1)*%
X78152000Y-69683300D02*
X78152000Y-75208000D01*
X68852000Y-60383300D02*
X78152000Y-69683300D01*
X68852000Y-58858000D02*
X68852000Y-60383300D01*
%TO.N,Net-(R11-Pad1)*%
X96540000Y-58308000D02*
X96540000Y-53482000D01*
%TO.N,Net-(R7-Pad1)*%
X115336000Y-58308000D02*
X115336000Y-53482000D01*
%TO.N,Net-(R3-Pad1)*%
X134132000Y-58308000D02*
X134132000Y-53482000D01*
%TO.N,Net-(D7-Pad2)*%
X107971300Y-62118000D02*
X103906000Y-62118000D01*
X110256000Y-64402700D02*
X107971300Y-62118000D01*
X110256000Y-65928000D02*
X110256000Y-64402700D01*
%TO.N,Net-(D6-Pad2)*%
X121941300Y-83708000D02*
X117876000Y-83708000D01*
X124226000Y-85992700D02*
X121941300Y-83708000D01*
X124226000Y-87518000D02*
X124226000Y-85992700D01*
%TO.N,Net-(D5-Pad2)*%
X126767300Y-62118000D02*
X122702000Y-62118000D01*
X129052000Y-64402700D02*
X126767300Y-62118000D01*
X129052000Y-65928000D02*
X129052000Y-64402700D01*
%TO.N,Net-(D4-Pad2)*%
X124379100Y-54651100D02*
X120924000Y-51196000D01*
X126952000Y-54651100D02*
X124379100Y-54651100D01*
X133370000Y-48233100D02*
X126952000Y-54651100D01*
X133370000Y-42560000D02*
X133370000Y-48233100D01*
%TO.N,Ctrl_Zone1*%
X57170000Y-43830000D02*
X58345300Y-43830000D01*
X58345300Y-43462600D02*
X58345300Y-43830000D01*
X59153200Y-42654700D02*
X58345300Y-43462600D01*
X65165500Y-42654700D02*
X59153200Y-42654700D01*
X66060000Y-41760200D02*
X65165500Y-42654700D01*
X66060000Y-40853400D02*
X66060000Y-41760200D01*
X67291600Y-39621800D02*
X66060000Y-40853400D01*
X108797200Y-39621800D02*
X67291600Y-39621800D01*
X114828000Y-45652600D02*
X108797200Y-39621800D01*
X121972100Y-45652600D02*
X114828000Y-45652600D01*
X126512000Y-50192500D02*
X121972100Y-45652600D01*
X126512000Y-53482000D02*
X126512000Y-50192500D01*
%TO.N,Ctrl_Zone2*%
X92414800Y-52356600D02*
X91173700Y-53597700D01*
X105465300Y-52356600D02*
X92414800Y-52356600D01*
X106590700Y-53482000D02*
X105465300Y-52356600D01*
X107716000Y-53482000D02*
X106590700Y-53482000D01*
%TO.N,Ctrl_Zone4*%
X90972300Y-59971600D02*
X76784300Y-45783600D01*
X111375200Y-59971600D02*
X90972300Y-59971600D01*
X121686000Y-70282400D02*
X111375200Y-59971600D01*
X121686000Y-74818000D02*
X121686000Y-70282400D01*
%TO.N,Ctrl_Zone5*%
X69870000Y-43830000D02*
X69870000Y-45005300D01*
X81620100Y-56016000D02*
X81620100Y-64404800D01*
X70609400Y-45005300D02*
X81620100Y-56016000D01*
X69870000Y-45005300D02*
X70609400Y-45005300D01*
%TO.N,Ctrl_Zone6*%
X72410000Y-46144100D02*
X72410000Y-43830000D01*
X82734400Y-56468500D02*
X72410000Y-46144100D01*
X82734400Y-72587100D02*
X82734400Y-56468500D01*
X83840000Y-73692700D02*
X82734400Y-72587100D01*
X83840000Y-74818000D02*
X83840000Y-73692700D01*
D33*
%TO.N,Zone2*%
X102801200Y-60848000D02*
X105176000Y-60848000D01*
X100651500Y-62997700D02*
X102801200Y-60848000D01*
X100651500Y-74780300D02*
X100651500Y-62997700D01*
X90190000Y-85241800D02*
X100651500Y-74780300D01*
X90190000Y-88187100D02*
X90190000Y-85241800D01*
X85028400Y-93348700D02*
X90190000Y-88187100D01*
X64270700Y-93348700D02*
X85028400Y-93348700D01*
X61996000Y-91074000D02*
X64270700Y-93348700D01*
%TO.N,Zone3*%
X74928800Y-80681200D02*
X64536000Y-91074000D01*
X79808100Y-80681200D02*
X74928800Y-80681200D01*
X85118900Y-75370400D02*
X79808100Y-80681200D01*
X85118900Y-71847000D02*
X85118900Y-75370400D01*
X83359600Y-70087700D02*
X85118900Y-71847000D01*
X83359600Y-61501600D02*
X83359600Y-70087700D01*
X84013200Y-60848000D02*
X83359600Y-61501600D01*
X86380000Y-60848000D02*
X84013200Y-60848000D01*
%TO.N,Zone6*%
X72156000Y-88981700D02*
X72156000Y-91074000D01*
X78953700Y-82184000D02*
X72156000Y-88981700D01*
X81300000Y-82184000D02*
X78953700Y-82184000D01*
D32*
%TO.N,+5V*%
X47010000Y-41290000D02*
X47010000Y-42465300D01*
X47377400Y-42465300D02*
X47010000Y-42465300D01*
X48185300Y-43273200D02*
X47377400Y-42465300D01*
X48185300Y-44187400D02*
X48185300Y-43273200D01*
X59295900Y-55298000D02*
X48185300Y-44187400D01*
X60902000Y-55298000D02*
X59295900Y-55298000D01*
X79612000Y-56468000D02*
X78286700Y-56468000D01*
X60902000Y-55298000D02*
X62127300Y-55298000D01*
X65827800Y-58998400D02*
X62127300Y-55298000D01*
X65452000Y-59374200D02*
X65827800Y-58998400D01*
X65452000Y-67588000D02*
X65452000Y-59374200D01*
X68358200Y-56468000D02*
X78286700Y-56468000D01*
X65827800Y-58998400D02*
X68358200Y-56468000D01*
D33*
%TO.N,+24VAC*%
X105176000Y-63388000D02*
X105176000Y-64387200D01*
X86380000Y-68214000D02*
X88920000Y-70754000D01*
X86380000Y-63388000D02*
X86380000Y-68214000D01*
X49412000Y-74588000D02*
X57822000Y-66178000D01*
X40872000Y-74588000D02*
X49412000Y-74588000D01*
X102890000Y-88517200D02*
X100350000Y-85977200D01*
X102890000Y-92344000D02*
X102890000Y-88517200D01*
X107716000Y-66927200D02*
X107716000Y-70754000D01*
X105176000Y-64387200D02*
X107716000Y-66927200D01*
X119146000Y-90312000D02*
X121686000Y-92852000D01*
X119146000Y-84978000D02*
X119146000Y-90312000D01*
X83840000Y-88263200D02*
X81300000Y-85723200D01*
X83840000Y-92090000D02*
X83840000Y-88263200D01*
X81300000Y-84724000D02*
X81300000Y-85723200D01*
X123972000Y-68214000D02*
X126512000Y-70754000D01*
X123972000Y-63388000D02*
X123972000Y-68214000D01*
X100350000Y-85477600D02*
X100350000Y-85977200D01*
X100350000Y-85477600D02*
X100350000Y-84978000D01*
X100350000Y-84978000D02*
X100350000Y-83978800D01*
X108053500Y-84978000D02*
X119146000Y-84978000D01*
X104139300Y-81063800D02*
X108053500Y-84978000D01*
X101224300Y-83978800D02*
X104139300Y-81063800D01*
X100350000Y-83978800D02*
X101224300Y-83978800D01*
X104139300Y-74330700D02*
X107716000Y-70754000D01*
X104139300Y-81063800D02*
X104139300Y-74330700D01*
D32*
%TO.N,GND*%
X58534700Y-41657400D02*
X58534700Y-41290000D01*
X57726800Y-42465300D02*
X58534700Y-41657400D01*
X56802600Y-42465300D02*
X57726800Y-42465300D01*
X55805300Y-43462600D02*
X56802600Y-42465300D01*
X55805300Y-43830000D02*
X55805300Y-43462600D01*
X59710000Y-41290000D02*
X58534700Y-41290000D01*
X81205300Y-40922600D02*
X81205300Y-41290000D01*
X82013200Y-40114700D02*
X81205300Y-40922600D01*
X83126700Y-40114700D02*
X82013200Y-40114700D01*
X83934700Y-40922700D02*
X83126700Y-40114700D01*
X83934700Y-41290000D02*
X83934700Y-40922700D01*
X85110000Y-41290000D02*
X83934700Y-41290000D01*
X80030000Y-41290000D02*
X81205300Y-41290000D01*
X80030000Y-41290000D02*
X78854700Y-41290000D01*
X59281800Y-75218200D02*
X57822000Y-76678000D01*
X59281800Y-60303100D02*
X59281800Y-75218200D01*
X59202000Y-60223300D02*
X59281800Y-60303100D01*
X59202000Y-58998000D02*
X59202000Y-60223300D01*
X67330000Y-41290000D02*
X68505300Y-41290000D01*
X74950000Y-43830000D02*
X73774700Y-43830000D01*
X120924000Y-53736000D02*
X120924000Y-52510700D01*
X120924000Y-46878000D02*
X120924000Y-48103300D01*
X94000000Y-58308000D02*
X94000000Y-56782700D01*
X54630000Y-43830000D02*
X55217700Y-43830000D01*
X55217700Y-43830000D02*
X55805300Y-43830000D01*
X50725300Y-41657400D02*
X50725300Y-41290000D01*
X51533200Y-42465300D02*
X50725300Y-41657400D01*
X53853000Y-42465300D02*
X51533200Y-42465300D01*
X55217700Y-43830000D02*
X53853000Y-42465300D01*
X49550000Y-41290000D02*
X50725300Y-41290000D01*
X68684200Y-52084900D02*
X68852000Y-52252700D01*
X68684200Y-43275600D02*
X68684200Y-52084900D01*
X69403900Y-42555900D02*
X68684200Y-43275600D01*
X68505300Y-41657400D02*
X69403900Y-42555900D01*
X68505300Y-41290000D02*
X68505300Y-41657400D01*
X73774700Y-43462600D02*
X73774700Y-43830000D01*
X72966800Y-42654700D02*
X73774700Y-43462600D01*
X69502600Y-42654700D02*
X72966800Y-42654700D01*
X69403900Y-42555900D02*
X69502600Y-42654700D01*
X76038800Y-43830000D02*
X74950000Y-43830000D01*
X76038800Y-43579400D02*
X76038800Y-43830000D01*
X77152900Y-42465300D02*
X76038800Y-43579400D01*
X78046800Y-42465300D02*
X77152900Y-42465300D01*
X78854700Y-41657400D02*
X78046800Y-42465300D01*
X78854700Y-41290000D02*
X78854700Y-41657400D01*
X76038800Y-47894800D02*
X79612000Y-51468000D01*
X76038800Y-43830000D02*
X76038800Y-47894800D01*
X92730000Y-46011700D02*
X92730000Y-44417600D01*
X92877400Y-46159000D02*
X92730000Y-46011700D01*
X120464500Y-52510700D02*
X119698700Y-51744900D01*
X120924000Y-52510700D02*
X120464500Y-52510700D01*
X119698700Y-49328600D02*
X120924000Y-48103300D01*
X119698700Y-51744900D02*
X119698700Y-49328600D01*
X115430500Y-51744900D02*
X112796000Y-54379400D01*
X119698700Y-51744900D02*
X115430500Y-51744900D01*
X112796000Y-54379400D02*
X112796000Y-58308000D01*
X93006300Y-46288000D02*
X92877400Y-46159000D01*
X104452000Y-46288000D02*
X93006300Y-46288000D01*
X112543400Y-54379400D02*
X112796000Y-54379400D01*
X104452000Y-46288000D02*
X112543400Y-54379400D01*
X88922000Y-48588000D02*
X90047300Y-48588000D01*
X90448400Y-48588000D02*
X90047300Y-48588000D01*
X92877400Y-46159000D02*
X90448400Y-48588000D01*
X93333000Y-56782700D02*
X94000000Y-56782700D01*
X90448400Y-53898100D02*
X93333000Y-56782700D01*
X90448400Y-48588000D02*
X90448400Y-53898100D01*
X92730000Y-43830000D02*
X92730000Y-44123800D01*
X92730000Y-44123800D02*
X92730000Y-44417600D01*
X86285300Y-41657400D02*
X86285300Y-41290000D01*
X87093200Y-42465300D02*
X86285300Y-41657400D01*
X91071500Y-42465300D02*
X87093200Y-42465300D01*
X92730000Y-44123800D02*
X91071500Y-42465300D01*
X85110000Y-41290000D02*
X86285300Y-41290000D01*
X68852000Y-53778000D02*
X68852000Y-52252700D01*
X57976700Y-58844800D02*
X57976700Y-58998000D01*
X50639900Y-51508000D02*
X57976700Y-58844800D01*
X44492000Y-51508000D02*
X50639900Y-51508000D01*
X59202000Y-58998000D02*
X57976700Y-58998000D01*
%TD*%
M02*
