%TF.GenerationSoftware,KiCad,Pcbnew,(6.0.11-0)*%
%TF.CreationDate,2023-02-13T11:09:09-07:00*%
%TF.ProjectId,Pi20,50693230-2e6b-4696-9361-645f70636258,rev?*%
%TF.SameCoordinates,Original*%
%TF.FileFunction,Legend,Top*%
%TF.FilePolarity,Positive*%
%FSLAX46Y46*%
G04 Gerber Fmt 4.6, Leading zero omitted, Abs format (unit mm)*
G04 Created by KiCad (PCBNEW (6.0.11-0)) date 2023-02-13 11:09:09*
%MOMM*%
%LPD*%
G01*
G04 APERTURE LIST*
%ADD10C,0.150000*%
%ADD11C,0.180000*%
%ADD12C,0.120000*%
%ADD13C,2.750000*%
G04 APERTURE END LIST*
D10*
X67720952Y-70692380D02*
X67720952Y-71406666D01*
X67673333Y-71549523D01*
X67578095Y-71644761D01*
X67435238Y-71692380D01*
X67340000Y-71692380D01*
X68673333Y-71692380D02*
X68197142Y-71692380D01*
X68197142Y-70692380D01*
X69578095Y-71597142D02*
X69530476Y-71644761D01*
X69387619Y-71692380D01*
X69292380Y-71692380D01*
X69149523Y-71644761D01*
X69054285Y-71549523D01*
X69006666Y-71454285D01*
X68959047Y-71263809D01*
X68959047Y-71120952D01*
X69006666Y-70930476D01*
X69054285Y-70835238D01*
X69149523Y-70740000D01*
X69292380Y-70692380D01*
X69387619Y-70692380D01*
X69530476Y-70740000D01*
X69578095Y-70787619D01*
X70292380Y-70692380D02*
X70292380Y-71406666D01*
X70244761Y-71549523D01*
X70149523Y-71644761D01*
X70006666Y-71692380D01*
X69911428Y-71692380D01*
X71244761Y-71692380D02*
X70768571Y-71692380D01*
X70768571Y-70692380D01*
X72149523Y-71597142D02*
X72101904Y-71644761D01*
X71959047Y-71692380D01*
X71863809Y-71692380D01*
X71720952Y-71644761D01*
X71625714Y-71549523D01*
X71578095Y-71454285D01*
X71530476Y-71263809D01*
X71530476Y-71120952D01*
X71578095Y-70930476D01*
X71625714Y-70835238D01*
X71720952Y-70740000D01*
X71863809Y-70692380D01*
X71959047Y-70692380D01*
X72101904Y-70740000D01*
X72149523Y-70787619D01*
X72863809Y-70692380D02*
X72863809Y-71406666D01*
X72816190Y-71549523D01*
X72720952Y-71644761D01*
X72578095Y-71692380D01*
X72482857Y-71692380D01*
X73816190Y-71692380D02*
X73340000Y-71692380D01*
X73340000Y-70692380D01*
X74720952Y-71597142D02*
X74673333Y-71644761D01*
X74530476Y-71692380D01*
X74435238Y-71692380D01*
X74292380Y-71644761D01*
X74197142Y-71549523D01*
X74149523Y-71454285D01*
X74101904Y-71263809D01*
X74101904Y-71120952D01*
X74149523Y-70930476D01*
X74197142Y-70835238D01*
X74292380Y-70740000D01*
X74435238Y-70692380D01*
X74530476Y-70692380D01*
X74673333Y-70740000D01*
X74720952Y-70787619D01*
X75435238Y-70692380D02*
X75435238Y-71406666D01*
X75387619Y-71549523D01*
X75292380Y-71644761D01*
X75149523Y-71692380D01*
X75054285Y-71692380D01*
X76387619Y-71692380D02*
X75911428Y-71692380D01*
X75911428Y-70692380D01*
X77292380Y-71597142D02*
X77244761Y-71644761D01*
X77101904Y-71692380D01*
X77006666Y-71692380D01*
X76863809Y-71644761D01*
X76768571Y-71549523D01*
X76720952Y-71454285D01*
X76673333Y-71263809D01*
X76673333Y-71120952D01*
X76720952Y-70930476D01*
X76768571Y-70835238D01*
X76863809Y-70740000D01*
X77006666Y-70692380D01*
X77101904Y-70692380D01*
X77244761Y-70740000D01*
X77292380Y-70787619D01*
X100885714Y-72686380D02*
X100314285Y-72686380D01*
X100600000Y-72686380D02*
X100600000Y-71686380D01*
X100504761Y-71829238D01*
X100409523Y-71924476D01*
X100314285Y-71972095D01*
D11*
X47439523Y-84486428D02*
X48201428Y-84486428D01*
X47820476Y-84867380D02*
X47820476Y-84105476D01*
X48630000Y-83962619D02*
X48677619Y-83915000D01*
X48772857Y-83867380D01*
X49010952Y-83867380D01*
X49106190Y-83915000D01*
X49153809Y-83962619D01*
X49201428Y-84057857D01*
X49201428Y-84153095D01*
X49153809Y-84295952D01*
X48582380Y-84867380D01*
X49201428Y-84867380D01*
X50058571Y-84200714D02*
X50058571Y-84867380D01*
X49820476Y-83819761D02*
X49582380Y-84534047D01*
X50201428Y-84534047D01*
X50439523Y-83867380D02*
X50772857Y-84867380D01*
X51106190Y-83867380D01*
X51391904Y-84581666D02*
X51868095Y-84581666D01*
X51296666Y-84867380D02*
X51630000Y-83867380D01*
X51963333Y-84867380D01*
X52868095Y-84772142D02*
X52820476Y-84819761D01*
X52677619Y-84867380D01*
X52582380Y-84867380D01*
X52439523Y-84819761D01*
X52344285Y-84724523D01*
X52296666Y-84629285D01*
X52249047Y-84438809D01*
X52249047Y-84295952D01*
X52296666Y-84105476D01*
X52344285Y-84010238D01*
X52439523Y-83915000D01*
X52582380Y-83867380D01*
X52677619Y-83867380D01*
X52820476Y-83915000D01*
X52868095Y-83962619D01*
X48487142Y-86477380D02*
X48487142Y-85477380D01*
X48963333Y-85810714D02*
X48963333Y-86477380D01*
X48963333Y-85905952D02*
X49010952Y-85858333D01*
X49106190Y-85810714D01*
X49249047Y-85810714D01*
X49344285Y-85858333D01*
X49391904Y-85953571D01*
X49391904Y-86477380D01*
X49868095Y-85810714D02*
X49868095Y-86810714D01*
X49868095Y-85858333D02*
X49963333Y-85810714D01*
X50153809Y-85810714D01*
X50249047Y-85858333D01*
X50296666Y-85905952D01*
X50344285Y-86001190D01*
X50344285Y-86286904D01*
X50296666Y-86382142D01*
X50249047Y-86429761D01*
X50153809Y-86477380D01*
X49963333Y-86477380D01*
X49868095Y-86429761D01*
X51201428Y-85810714D02*
X51201428Y-86477380D01*
X50772857Y-85810714D02*
X50772857Y-86334523D01*
X50820476Y-86429761D01*
X50915714Y-86477380D01*
X51058571Y-86477380D01*
X51153809Y-86429761D01*
X51201428Y-86382142D01*
X51534761Y-85810714D02*
X51915714Y-85810714D01*
X51677619Y-85477380D02*
X51677619Y-86334523D01*
X51725238Y-86429761D01*
X51820476Y-86477380D01*
X51915714Y-86477380D01*
X119384285Y-41107428D02*
X120146190Y-41107428D01*
X119765238Y-41488380D02*
X119765238Y-40726476D01*
X121098571Y-40488380D02*
X120622380Y-40488380D01*
X120574761Y-40964571D01*
X120622380Y-40916952D01*
X120717619Y-40869333D01*
X120955714Y-40869333D01*
X121050952Y-40916952D01*
X121098571Y-40964571D01*
X121146190Y-41059809D01*
X121146190Y-41297904D01*
X121098571Y-41393142D01*
X121050952Y-41440761D01*
X120955714Y-41488380D01*
X120717619Y-41488380D01*
X120622380Y-41440761D01*
X120574761Y-41393142D01*
X121431904Y-40488380D02*
X121765238Y-41488380D01*
X122098571Y-40488380D01*
X118670000Y-57109428D02*
X119431904Y-57109428D01*
X119050952Y-57490380D02*
X119050952Y-56728476D01*
X119812857Y-56490380D02*
X120431904Y-56490380D01*
X120098571Y-56871333D01*
X120241428Y-56871333D01*
X120336666Y-56918952D01*
X120384285Y-56966571D01*
X120431904Y-57061809D01*
X120431904Y-57299904D01*
X120384285Y-57395142D01*
X120336666Y-57442761D01*
X120241428Y-57490380D01*
X119955714Y-57490380D01*
X119860476Y-57442761D01*
X119812857Y-57395142D01*
X120860476Y-57395142D02*
X120908095Y-57442761D01*
X120860476Y-57490380D01*
X120812857Y-57442761D01*
X120860476Y-57395142D01*
X120860476Y-57490380D01*
X121241428Y-56490380D02*
X121860476Y-56490380D01*
X121527142Y-56871333D01*
X121670000Y-56871333D01*
X121765238Y-56918952D01*
X121812857Y-56966571D01*
X121860476Y-57061809D01*
X121860476Y-57299904D01*
X121812857Y-57395142D01*
X121765238Y-57442761D01*
X121670000Y-57490380D01*
X121384285Y-57490380D01*
X121289047Y-57442761D01*
X121241428Y-57395142D01*
X122146190Y-56490380D02*
X122479523Y-57490380D01*
X122812857Y-56490380D01*
X60033333Y-86702380D02*
X59461904Y-86702380D01*
X59747619Y-86702380D02*
X59747619Y-85702380D01*
X59652380Y-85845238D01*
X59557142Y-85940476D01*
X59461904Y-85988095D01*
X61938095Y-85797619D02*
X61985714Y-85750000D01*
X62080952Y-85702380D01*
X62319047Y-85702380D01*
X62414285Y-85750000D01*
X62461904Y-85797619D01*
X62509523Y-85892857D01*
X62509523Y-85988095D01*
X62461904Y-86130952D01*
X61890476Y-86702380D01*
X62509523Y-86702380D01*
X64366666Y-85702380D02*
X64985714Y-85702380D01*
X64652380Y-86083333D01*
X64795238Y-86083333D01*
X64890476Y-86130952D01*
X64938095Y-86178571D01*
X64985714Y-86273809D01*
X64985714Y-86511904D01*
X64938095Y-86607142D01*
X64890476Y-86654761D01*
X64795238Y-86702380D01*
X64509523Y-86702380D01*
X64414285Y-86654761D01*
X64366666Y-86607142D01*
X67366666Y-86035714D02*
X67366666Y-86702380D01*
X67128571Y-85654761D02*
X66890476Y-86369047D01*
X67509523Y-86369047D01*
X69890476Y-85702380D02*
X69414285Y-85702380D01*
X69366666Y-86178571D01*
X69414285Y-86130952D01*
X69509523Y-86083333D01*
X69747619Y-86083333D01*
X69842857Y-86130952D01*
X69890476Y-86178571D01*
X69938095Y-86273809D01*
X69938095Y-86511904D01*
X69890476Y-86607142D01*
X69842857Y-86654761D01*
X69747619Y-86702380D01*
X69509523Y-86702380D01*
X69414285Y-86654761D01*
X69366666Y-86607142D01*
X72319047Y-85702380D02*
X72128571Y-85702380D01*
X72033333Y-85750000D01*
X71985714Y-85797619D01*
X71890476Y-85940476D01*
X71842857Y-86130952D01*
X71842857Y-86511904D01*
X71890476Y-86607142D01*
X71938095Y-86654761D01*
X72033333Y-86702380D01*
X72223809Y-86702380D01*
X72319047Y-86654761D01*
X72366666Y-86607142D01*
X72414285Y-86511904D01*
X72414285Y-86273809D01*
X72366666Y-86178571D01*
X72319047Y-86130952D01*
X72223809Y-86083333D01*
X72033333Y-86083333D01*
X71938095Y-86130952D01*
X71890476Y-86178571D01*
X71842857Y-86273809D01*
X74938095Y-86607142D02*
X74890476Y-86654761D01*
X74747619Y-86702380D01*
X74652380Y-86702380D01*
X74509523Y-86654761D01*
X74414285Y-86559523D01*
X74366666Y-86464285D01*
X74319047Y-86273809D01*
X74319047Y-86130952D01*
X74366666Y-85940476D01*
X74414285Y-85845238D01*
X74509523Y-85750000D01*
X74652380Y-85702380D01*
X74747619Y-85702380D01*
X74890476Y-85750000D01*
X74938095Y-85797619D01*
X40780000Y-85162380D02*
X40780000Y-84162380D01*
X41160952Y-84162380D01*
X41256190Y-84210000D01*
X41303809Y-84257619D01*
X41351428Y-84352857D01*
X41351428Y-84495714D01*
X41303809Y-84590952D01*
X41256190Y-84638571D01*
X41160952Y-84686190D01*
X40780000Y-84686190D01*
X41780000Y-85162380D02*
X41780000Y-84495714D01*
X41780000Y-84162380D02*
X41732380Y-84210000D01*
X41780000Y-84257619D01*
X41827619Y-84210000D01*
X41780000Y-84162380D01*
X41780000Y-84257619D01*
X42208571Y-84257619D02*
X42256190Y-84210000D01*
X42351428Y-84162380D01*
X42589523Y-84162380D01*
X42684761Y-84210000D01*
X42732380Y-84257619D01*
X42780000Y-84352857D01*
X42780000Y-84448095D01*
X42732380Y-84590952D01*
X42160952Y-85162380D01*
X42780000Y-85162380D01*
X43399047Y-84162380D02*
X43589523Y-84162380D01*
X43684761Y-84210000D01*
X43780000Y-84305238D01*
X43827619Y-84495714D01*
X43827619Y-84829047D01*
X43780000Y-85019523D01*
X43684761Y-85114761D01*
X43589523Y-85162380D01*
X43399047Y-85162380D01*
X43303809Y-85114761D01*
X43208571Y-85019523D01*
X43160952Y-84829047D01*
X43160952Y-84495714D01*
X43208571Y-84305238D01*
X43303809Y-84210000D01*
X43399047Y-84162380D01*
X39375238Y-85772380D02*
X39375238Y-86486666D01*
X39327619Y-86629523D01*
X39232380Y-86724761D01*
X39089523Y-86772380D01*
X38994285Y-86772380D01*
X39851428Y-86677142D02*
X39899047Y-86724761D01*
X39851428Y-86772380D01*
X39803809Y-86724761D01*
X39851428Y-86677142D01*
X39851428Y-86772380D01*
X41089523Y-86772380D02*
X41089523Y-85772380D01*
X41327619Y-85772380D01*
X41470476Y-85820000D01*
X41565714Y-85915238D01*
X41613333Y-86010476D01*
X41660952Y-86200952D01*
X41660952Y-86343809D01*
X41613333Y-86534285D01*
X41565714Y-86629523D01*
X41470476Y-86724761D01*
X41327619Y-86772380D01*
X41089523Y-86772380D01*
X42232380Y-86772380D02*
X42137142Y-86724761D01*
X42089523Y-86677142D01*
X42041904Y-86581904D01*
X42041904Y-86296190D01*
X42089523Y-86200952D01*
X42137142Y-86153333D01*
X42232380Y-86105714D01*
X42375238Y-86105714D01*
X42470476Y-86153333D01*
X42518095Y-86200952D01*
X42565714Y-86296190D01*
X42565714Y-86581904D01*
X42518095Y-86677142D01*
X42470476Y-86724761D01*
X42375238Y-86772380D01*
X42232380Y-86772380D01*
X42899047Y-86105714D02*
X43089523Y-86772380D01*
X43280000Y-86296190D01*
X43470476Y-86772380D01*
X43660952Y-86105714D01*
X44422857Y-86724761D02*
X44327619Y-86772380D01*
X44137142Y-86772380D01*
X44041904Y-86724761D01*
X43994285Y-86629523D01*
X43994285Y-86248571D01*
X44041904Y-86153333D01*
X44137142Y-86105714D01*
X44327619Y-86105714D01*
X44422857Y-86153333D01*
X44470476Y-86248571D01*
X44470476Y-86343809D01*
X43994285Y-86439047D01*
X45041904Y-86772380D02*
X44946666Y-86724761D01*
X44899047Y-86629523D01*
X44899047Y-85772380D01*
X45565714Y-86772380D02*
X45470476Y-86724761D01*
X45422857Y-86629523D01*
X45422857Y-85772380D01*
X40518095Y-87477619D02*
X40565714Y-87430000D01*
X40660952Y-87382380D01*
X40899047Y-87382380D01*
X40994285Y-87430000D01*
X41041904Y-87477619D01*
X41089523Y-87572857D01*
X41089523Y-87668095D01*
X41041904Y-87810952D01*
X40470476Y-88382380D01*
X41089523Y-88382380D01*
X42232380Y-87334761D02*
X41375238Y-88620476D01*
X42518095Y-87477619D02*
X42565714Y-87430000D01*
X42660952Y-87382380D01*
X42899047Y-87382380D01*
X42994285Y-87430000D01*
X43041904Y-87477619D01*
X43089523Y-87572857D01*
X43089523Y-87668095D01*
X43041904Y-87810952D01*
X42470476Y-88382380D01*
X43089523Y-88382380D01*
X43422857Y-87382380D02*
X44041904Y-87382380D01*
X43708571Y-87763333D01*
X43851428Y-87763333D01*
X43946666Y-87810952D01*
X43994285Y-87858571D01*
X44041904Y-87953809D01*
X44041904Y-88191904D01*
X43994285Y-88287142D01*
X43946666Y-88334761D01*
X43851428Y-88382380D01*
X43565714Y-88382380D01*
X43470476Y-88334761D01*
X43422857Y-88287142D01*
D10*
%TO.C,C1*%
X37349142Y-54174666D02*
X37396761Y-54222285D01*
X37444380Y-54365142D01*
X37444380Y-54460380D01*
X37396761Y-54603238D01*
X37301523Y-54698476D01*
X37206285Y-54746095D01*
X37015809Y-54793714D01*
X36872952Y-54793714D01*
X36682476Y-54746095D01*
X36587238Y-54698476D01*
X36492000Y-54603238D01*
X36444380Y-54460380D01*
X36444380Y-54365142D01*
X36492000Y-54222285D01*
X36539619Y-54174666D01*
X37444380Y-53222285D02*
X37444380Y-53793714D01*
X37444380Y-53508000D02*
X36444380Y-53508000D01*
X36587238Y-53603238D01*
X36682476Y-53698476D01*
X36730095Y-53793714D01*
%TO.C,C2*%
X73719142Y-54134666D02*
X73766761Y-54182285D01*
X73814380Y-54325142D01*
X73814380Y-54420380D01*
X73766761Y-54563238D01*
X73671523Y-54658476D01*
X73576285Y-54706095D01*
X73385809Y-54753714D01*
X73242952Y-54753714D01*
X73052476Y-54706095D01*
X72957238Y-54658476D01*
X72862000Y-54563238D01*
X72814380Y-54420380D01*
X72814380Y-54325142D01*
X72862000Y-54182285D01*
X72909619Y-54134666D01*
X72909619Y-53753714D02*
X72862000Y-53706095D01*
X72814380Y-53610857D01*
X72814380Y-53372761D01*
X72862000Y-53277523D01*
X72909619Y-53229904D01*
X73004857Y-53182285D01*
X73100095Y-53182285D01*
X73242952Y-53229904D01*
X73814380Y-53801333D01*
X73814380Y-53182285D01*
%TO.C,J1*%
X45914666Y-90526380D02*
X45914666Y-91240666D01*
X45867047Y-91383523D01*
X45771809Y-91478761D01*
X45628952Y-91526380D01*
X45533714Y-91526380D01*
X46914666Y-91526380D02*
X46343238Y-91526380D01*
X46628952Y-91526380D02*
X46628952Y-90526380D01*
X46533714Y-90669238D01*
X46438476Y-90764476D01*
X46343238Y-90812095D01*
%TO.C,J2*%
X77156666Y-90526380D02*
X77156666Y-91240666D01*
X77109047Y-91383523D01*
X77013809Y-91478761D01*
X76870952Y-91526380D01*
X76775714Y-91526380D01*
X77585238Y-90621619D02*
X77632857Y-90574000D01*
X77728095Y-90526380D01*
X77966190Y-90526380D01*
X78061428Y-90574000D01*
X78109047Y-90621619D01*
X78156666Y-90716857D01*
X78156666Y-90812095D01*
X78109047Y-90954952D01*
X77537619Y-91526380D01*
X78156666Y-91526380D01*
%TO.C,J3*%
X41592380Y-42893333D02*
X42306666Y-42893333D01*
X42449523Y-42940952D01*
X42544761Y-43036190D01*
X42592380Y-43179047D01*
X42592380Y-43274285D01*
X41592380Y-42512380D02*
X41592380Y-41893333D01*
X41973333Y-42226666D01*
X41973333Y-42083809D01*
X42020952Y-41988571D01*
X42068571Y-41940952D01*
X42163809Y-41893333D01*
X42401904Y-41893333D01*
X42497142Y-41940952D01*
X42544761Y-41988571D01*
X42592380Y-42083809D01*
X42592380Y-42369523D01*
X42544761Y-42464761D01*
X42497142Y-42512380D01*
%TO.C,D1*%
X58183904Y-81530380D02*
X58183904Y-80530380D01*
X58422000Y-80530380D01*
X58564857Y-80578000D01*
X58660095Y-80673238D01*
X58707714Y-80768476D01*
X58755333Y-80958952D01*
X58755333Y-81101809D01*
X58707714Y-81292285D01*
X58660095Y-81387523D01*
X58564857Y-81482761D01*
X58422000Y-81530380D01*
X58183904Y-81530380D01*
X59707714Y-81530380D02*
X59136285Y-81530380D01*
X59422000Y-81530380D02*
X59422000Y-80530380D01*
X59326761Y-80673238D01*
X59231523Y-80768476D01*
X59136285Y-80816095D01*
%TO.C,D2*%
X65519380Y-57056095D02*
X64519380Y-57056095D01*
X64519380Y-56818000D01*
X64567000Y-56675142D01*
X64662238Y-56579904D01*
X64757476Y-56532285D01*
X64947952Y-56484666D01*
X65090809Y-56484666D01*
X65281285Y-56532285D01*
X65376523Y-56579904D01*
X65471761Y-56675142D01*
X65519380Y-56818000D01*
X65519380Y-57056095D01*
X64614619Y-56103714D02*
X64567000Y-56056095D01*
X64519380Y-55960857D01*
X64519380Y-55722761D01*
X64567000Y-55627523D01*
X64614619Y-55579904D01*
X64709857Y-55532285D01*
X64805095Y-55532285D01*
X64947952Y-55579904D01*
X65519380Y-56151333D01*
X65519380Y-55532285D01*
X71504380Y-59119904D02*
X70504380Y-59119904D01*
X71504380Y-58548476D02*
X70932952Y-58977047D01*
X70504380Y-58548476D02*
X71075809Y-59119904D01*
%TO.C,D4*%
X117416380Y-53204095D02*
X116416380Y-53204095D01*
X116416380Y-52966000D01*
X116464000Y-52823142D01*
X116559238Y-52727904D01*
X116654476Y-52680285D01*
X116844952Y-52632666D01*
X116987809Y-52632666D01*
X117178285Y-52680285D01*
X117273523Y-52727904D01*
X117368761Y-52823142D01*
X117416380Y-52966000D01*
X117416380Y-53204095D01*
X116749714Y-51775523D02*
X117416380Y-51775523D01*
X116368761Y-52013619D02*
X117083047Y-52251714D01*
X117083047Y-51632666D01*
%TO.C,D5*%
X120024380Y-62856095D02*
X119024380Y-62856095D01*
X119024380Y-62618000D01*
X119072000Y-62475142D01*
X119167238Y-62379904D01*
X119262476Y-62332285D01*
X119452952Y-62284666D01*
X119595809Y-62284666D01*
X119786285Y-62332285D01*
X119881523Y-62379904D01*
X119976761Y-62475142D01*
X120024380Y-62618000D01*
X120024380Y-62856095D01*
X119024380Y-61379904D02*
X119024380Y-61856095D01*
X119500571Y-61903714D01*
X119452952Y-61856095D01*
X119405333Y-61760857D01*
X119405333Y-61522761D01*
X119452952Y-61427523D01*
X119500571Y-61379904D01*
X119595809Y-61332285D01*
X119833904Y-61332285D01*
X119929142Y-61379904D01*
X119976761Y-61427523D01*
X120024380Y-61522761D01*
X120024380Y-61760857D01*
X119976761Y-61856095D01*
X119929142Y-61903714D01*
%TO.C,D6*%
X115198380Y-84446095D02*
X114198380Y-84446095D01*
X114198380Y-84208000D01*
X114246000Y-84065142D01*
X114341238Y-83969904D01*
X114436476Y-83922285D01*
X114626952Y-83874666D01*
X114769809Y-83874666D01*
X114960285Y-83922285D01*
X115055523Y-83969904D01*
X115150761Y-84065142D01*
X115198380Y-84208000D01*
X115198380Y-84446095D01*
X114198380Y-83017523D02*
X114198380Y-83208000D01*
X114246000Y-83303238D01*
X114293619Y-83350857D01*
X114436476Y-83446095D01*
X114626952Y-83493714D01*
X115007904Y-83493714D01*
X115103142Y-83446095D01*
X115150761Y-83398476D01*
X115198380Y-83303238D01*
X115198380Y-83112761D01*
X115150761Y-83017523D01*
X115103142Y-82969904D01*
X115007904Y-82922285D01*
X114769809Y-82922285D01*
X114674571Y-82969904D01*
X114626952Y-83017523D01*
X114579333Y-83112761D01*
X114579333Y-83303238D01*
X114626952Y-83398476D01*
X114674571Y-83446095D01*
X114769809Y-83493714D01*
%TO.C,D7*%
X101228380Y-62856095D02*
X100228380Y-62856095D01*
X100228380Y-62618000D01*
X100276000Y-62475142D01*
X100371238Y-62379904D01*
X100466476Y-62332285D01*
X100656952Y-62284666D01*
X100799809Y-62284666D01*
X100990285Y-62332285D01*
X101085523Y-62379904D01*
X101180761Y-62475142D01*
X101228380Y-62618000D01*
X101228380Y-62856095D01*
X100228380Y-61951333D02*
X100228380Y-61284666D01*
X101228380Y-61713238D01*
%TO.C,D8*%
X96402380Y-84446095D02*
X95402380Y-84446095D01*
X95402380Y-84208000D01*
X95450000Y-84065142D01*
X95545238Y-83969904D01*
X95640476Y-83922285D01*
X95830952Y-83874666D01*
X95973809Y-83874666D01*
X96164285Y-83922285D01*
X96259523Y-83969904D01*
X96354761Y-84065142D01*
X96402380Y-84208000D01*
X96402380Y-84446095D01*
X95830952Y-83303238D02*
X95783333Y-83398476D01*
X95735714Y-83446095D01*
X95640476Y-83493714D01*
X95592857Y-83493714D01*
X95497619Y-83446095D01*
X95450000Y-83398476D01*
X95402380Y-83303238D01*
X95402380Y-83112761D01*
X95450000Y-83017523D01*
X95497619Y-82969904D01*
X95592857Y-82922285D01*
X95640476Y-82922285D01*
X95735714Y-82969904D01*
X95783333Y-83017523D01*
X95830952Y-83112761D01*
X95830952Y-83303238D01*
X95878571Y-83398476D01*
X95926190Y-83446095D01*
X96021428Y-83493714D01*
X96211904Y-83493714D01*
X96307142Y-83446095D01*
X96354761Y-83398476D01*
X96402380Y-83303238D01*
X96402380Y-83112761D01*
X96354761Y-83017523D01*
X96307142Y-82969904D01*
X96211904Y-82922285D01*
X96021428Y-82922285D01*
X95926190Y-82969904D01*
X95878571Y-83017523D01*
X95830952Y-83112761D01*
%TO.C,D9*%
X82432380Y-62856095D02*
X81432380Y-62856095D01*
X81432380Y-62618000D01*
X81480000Y-62475142D01*
X81575238Y-62379904D01*
X81670476Y-62332285D01*
X81860952Y-62284666D01*
X82003809Y-62284666D01*
X82194285Y-62332285D01*
X82289523Y-62379904D01*
X82384761Y-62475142D01*
X82432380Y-62618000D01*
X82432380Y-62856095D01*
X82432380Y-61808476D02*
X82432380Y-61618000D01*
X82384761Y-61522761D01*
X82337142Y-61475142D01*
X82194285Y-61379904D01*
X82003809Y-61332285D01*
X81622857Y-61332285D01*
X81527619Y-61379904D01*
X81480000Y-61427523D01*
X81432380Y-61522761D01*
X81432380Y-61713238D01*
X81480000Y-61808476D01*
X81527619Y-61856095D01*
X81622857Y-61903714D01*
X81860952Y-61903714D01*
X81956190Y-61856095D01*
X82003809Y-61808476D01*
X82051428Y-61713238D01*
X82051428Y-61522761D01*
X82003809Y-61427523D01*
X81956190Y-61379904D01*
X81860952Y-61332285D01*
%TO.C,D10*%
X77352380Y-84668285D02*
X76352380Y-84668285D01*
X76352380Y-84430190D01*
X76400000Y-84287333D01*
X76495238Y-84192095D01*
X76590476Y-84144476D01*
X76780952Y-84096857D01*
X76923809Y-84096857D01*
X77114285Y-84144476D01*
X77209523Y-84192095D01*
X77304761Y-84287333D01*
X77352380Y-84430190D01*
X77352380Y-84668285D01*
X77352380Y-83144476D02*
X77352380Y-83715904D01*
X77352380Y-83430190D02*
X76352380Y-83430190D01*
X76495238Y-83525428D01*
X76590476Y-83620666D01*
X76638095Y-83715904D01*
X76352380Y-82525428D02*
X76352380Y-82430190D01*
X76400000Y-82334952D01*
X76447619Y-82287333D01*
X76542857Y-82239714D01*
X76733333Y-82192095D01*
X76971428Y-82192095D01*
X77161904Y-82239714D01*
X77257142Y-82287333D01*
X77304761Y-82334952D01*
X77352380Y-82430190D01*
X77352380Y-82525428D01*
X77304761Y-82620666D01*
X77257142Y-82668285D01*
X77161904Y-82715904D01*
X76971428Y-82763523D01*
X76733333Y-82763523D01*
X76542857Y-82715904D01*
X76447619Y-82668285D01*
X76400000Y-82620666D01*
X76352380Y-82525428D01*
%TO.C,F1*%
X37450571Y-77421333D02*
X37450571Y-77754666D01*
X37974380Y-77754666D02*
X36974380Y-77754666D01*
X36974380Y-77278476D01*
X37974380Y-76373714D02*
X37974380Y-76945142D01*
X37974380Y-76659428D02*
X36974380Y-76659428D01*
X37117238Y-76754666D01*
X37212476Y-76849904D01*
X37260095Y-76945142D01*
%TO.C,L1*%
X81569380Y-71564666D02*
X81569380Y-72040857D01*
X80569380Y-72040857D01*
X81569380Y-70707523D02*
X81569380Y-71278952D01*
X81569380Y-70993238D02*
X80569380Y-70993238D01*
X80712238Y-71088476D01*
X80807476Y-71183714D01*
X80855095Y-71278952D01*
%TO.C,R2*%
X131452380Y-46536666D02*
X130976190Y-46870000D01*
X131452380Y-47108095D02*
X130452380Y-47108095D01*
X130452380Y-46727142D01*
X130500000Y-46631904D01*
X130547619Y-46584285D01*
X130642857Y-46536666D01*
X130785714Y-46536666D01*
X130880952Y-46584285D01*
X130928571Y-46631904D01*
X130976190Y-46727142D01*
X130976190Y-47108095D01*
X130547619Y-46155714D02*
X130500000Y-46108095D01*
X130452380Y-46012857D01*
X130452380Y-45774761D01*
X130500000Y-45679523D01*
X130547619Y-45631904D01*
X130642857Y-45584285D01*
X130738095Y-45584285D01*
X130880952Y-45631904D01*
X131452380Y-46203333D01*
X131452380Y-45584285D01*
%TO.C,R3*%
X130155333Y-56304380D02*
X129822000Y-55828190D01*
X129583904Y-56304380D02*
X129583904Y-55304380D01*
X129964857Y-55304380D01*
X130060095Y-55352000D01*
X130107714Y-55399619D01*
X130155333Y-55494857D01*
X130155333Y-55637714D01*
X130107714Y-55732952D01*
X130060095Y-55780571D01*
X129964857Y-55828190D01*
X129583904Y-55828190D01*
X130488666Y-55304380D02*
X131107714Y-55304380D01*
X130774380Y-55685333D01*
X130917238Y-55685333D01*
X131012476Y-55732952D01*
X131060095Y-55780571D01*
X131107714Y-55875809D01*
X131107714Y-56113904D01*
X131060095Y-56209142D01*
X131012476Y-56256761D01*
X130917238Y-56304380D01*
X130631523Y-56304380D01*
X130536285Y-56256761D01*
X130488666Y-56209142D01*
%TO.C,R4*%
X130155333Y-68836380D02*
X129822000Y-68360190D01*
X129583904Y-68836380D02*
X129583904Y-67836380D01*
X129964857Y-67836380D01*
X130060095Y-67884000D01*
X130107714Y-67931619D01*
X130155333Y-68026857D01*
X130155333Y-68169714D01*
X130107714Y-68264952D01*
X130060095Y-68312571D01*
X129964857Y-68360190D01*
X129583904Y-68360190D01*
X131012476Y-68169714D02*
X131012476Y-68836380D01*
X130774380Y-67788761D02*
X130536285Y-68503047D01*
X131155333Y-68503047D01*
%TO.C,R5*%
X125329333Y-77640380D02*
X124996000Y-77164190D01*
X124757904Y-77640380D02*
X124757904Y-76640380D01*
X125138857Y-76640380D01*
X125234095Y-76688000D01*
X125281714Y-76735619D01*
X125329333Y-76830857D01*
X125329333Y-76973714D01*
X125281714Y-77068952D01*
X125234095Y-77116571D01*
X125138857Y-77164190D01*
X124757904Y-77164190D01*
X126234095Y-76640380D02*
X125757904Y-76640380D01*
X125710285Y-77116571D01*
X125757904Y-77068952D01*
X125853142Y-77021333D01*
X126091238Y-77021333D01*
X126186476Y-77068952D01*
X126234095Y-77116571D01*
X126281714Y-77211809D01*
X126281714Y-77449904D01*
X126234095Y-77545142D01*
X126186476Y-77592761D01*
X126091238Y-77640380D01*
X125853142Y-77640380D01*
X125757904Y-77592761D01*
X125710285Y-77545142D01*
%TO.C,R6*%
X125329333Y-90934380D02*
X124996000Y-90458190D01*
X124757904Y-90934380D02*
X124757904Y-89934380D01*
X125138857Y-89934380D01*
X125234095Y-89982000D01*
X125281714Y-90029619D01*
X125329333Y-90124857D01*
X125329333Y-90267714D01*
X125281714Y-90362952D01*
X125234095Y-90410571D01*
X125138857Y-90458190D01*
X124757904Y-90458190D01*
X126186476Y-89934380D02*
X125996000Y-89934380D01*
X125900761Y-89982000D01*
X125853142Y-90029619D01*
X125757904Y-90172476D01*
X125710285Y-90362952D01*
X125710285Y-90743904D01*
X125757904Y-90839142D01*
X125805523Y-90886761D01*
X125900761Y-90934380D01*
X126091238Y-90934380D01*
X126186476Y-90886761D01*
X126234095Y-90839142D01*
X126281714Y-90743904D01*
X126281714Y-90505809D01*
X126234095Y-90410571D01*
X126186476Y-90362952D01*
X126091238Y-90315333D01*
X125900761Y-90315333D01*
X125805523Y-90362952D01*
X125757904Y-90410571D01*
X125710285Y-90505809D01*
%TO.C,R7*%
X111359333Y-56304380D02*
X111026000Y-55828190D01*
X110787904Y-56304380D02*
X110787904Y-55304380D01*
X111168857Y-55304380D01*
X111264095Y-55352000D01*
X111311714Y-55399619D01*
X111359333Y-55494857D01*
X111359333Y-55637714D01*
X111311714Y-55732952D01*
X111264095Y-55780571D01*
X111168857Y-55828190D01*
X110787904Y-55828190D01*
X111692666Y-55304380D02*
X112359333Y-55304380D01*
X111930761Y-56304380D01*
%TO.C,R8*%
X111359333Y-68836380D02*
X111026000Y-68360190D01*
X110787904Y-68836380D02*
X110787904Y-67836380D01*
X111168857Y-67836380D01*
X111264095Y-67884000D01*
X111311714Y-67931619D01*
X111359333Y-68026857D01*
X111359333Y-68169714D01*
X111311714Y-68264952D01*
X111264095Y-68312571D01*
X111168857Y-68360190D01*
X110787904Y-68360190D01*
X111930761Y-68264952D02*
X111835523Y-68217333D01*
X111787904Y-68169714D01*
X111740285Y-68074476D01*
X111740285Y-68026857D01*
X111787904Y-67931619D01*
X111835523Y-67884000D01*
X111930761Y-67836380D01*
X112121238Y-67836380D01*
X112216476Y-67884000D01*
X112264095Y-67931619D01*
X112311714Y-68026857D01*
X112311714Y-68074476D01*
X112264095Y-68169714D01*
X112216476Y-68217333D01*
X112121238Y-68264952D01*
X111930761Y-68264952D01*
X111835523Y-68312571D01*
X111787904Y-68360190D01*
X111740285Y-68455428D01*
X111740285Y-68645904D01*
X111787904Y-68741142D01*
X111835523Y-68788761D01*
X111930761Y-68836380D01*
X112121238Y-68836380D01*
X112216476Y-68788761D01*
X112264095Y-68741142D01*
X112311714Y-68645904D01*
X112311714Y-68455428D01*
X112264095Y-68360190D01*
X112216476Y-68312571D01*
X112121238Y-68264952D01*
%TO.C,R9*%
X106533333Y-77640380D02*
X106200000Y-77164190D01*
X105961904Y-77640380D02*
X105961904Y-76640380D01*
X106342857Y-76640380D01*
X106438095Y-76688000D01*
X106485714Y-76735619D01*
X106533333Y-76830857D01*
X106533333Y-76973714D01*
X106485714Y-77068952D01*
X106438095Y-77116571D01*
X106342857Y-77164190D01*
X105961904Y-77164190D01*
X107009523Y-77640380D02*
X107200000Y-77640380D01*
X107295238Y-77592761D01*
X107342857Y-77545142D01*
X107438095Y-77402285D01*
X107485714Y-77211809D01*
X107485714Y-76830857D01*
X107438095Y-76735619D01*
X107390476Y-76688000D01*
X107295238Y-76640380D01*
X107104761Y-76640380D01*
X107009523Y-76688000D01*
X106961904Y-76735619D01*
X106914285Y-76830857D01*
X106914285Y-77068952D01*
X106961904Y-77164190D01*
X107009523Y-77211809D01*
X107104761Y-77259428D01*
X107295238Y-77259428D01*
X107390476Y-77211809D01*
X107438095Y-77164190D01*
X107485714Y-77068952D01*
%TO.C,R10*%
X106057142Y-90426380D02*
X105723809Y-89950190D01*
X105485714Y-90426380D02*
X105485714Y-89426380D01*
X105866666Y-89426380D01*
X105961904Y-89474000D01*
X106009523Y-89521619D01*
X106057142Y-89616857D01*
X106057142Y-89759714D01*
X106009523Y-89854952D01*
X105961904Y-89902571D01*
X105866666Y-89950190D01*
X105485714Y-89950190D01*
X107009523Y-90426380D02*
X106438095Y-90426380D01*
X106723809Y-90426380D02*
X106723809Y-89426380D01*
X106628571Y-89569238D01*
X106533333Y-89664476D01*
X106438095Y-89712095D01*
X107628571Y-89426380D02*
X107723809Y-89426380D01*
X107819047Y-89474000D01*
X107866666Y-89521619D01*
X107914285Y-89616857D01*
X107961904Y-89807333D01*
X107961904Y-90045428D01*
X107914285Y-90235904D01*
X107866666Y-90331142D01*
X107819047Y-90378761D01*
X107723809Y-90426380D01*
X107628571Y-90426380D01*
X107533333Y-90378761D01*
X107485714Y-90331142D01*
X107438095Y-90235904D01*
X107390476Y-90045428D01*
X107390476Y-89807333D01*
X107438095Y-89616857D01*
X107485714Y-89521619D01*
X107533333Y-89474000D01*
X107628571Y-89426380D01*
%TO.C,R11*%
X92087142Y-56304380D02*
X91753809Y-55828190D01*
X91515714Y-56304380D02*
X91515714Y-55304380D01*
X91896666Y-55304380D01*
X91991904Y-55352000D01*
X92039523Y-55399619D01*
X92087142Y-55494857D01*
X92087142Y-55637714D01*
X92039523Y-55732952D01*
X91991904Y-55780571D01*
X91896666Y-55828190D01*
X91515714Y-55828190D01*
X93039523Y-56304380D02*
X92468095Y-56304380D01*
X92753809Y-56304380D02*
X92753809Y-55304380D01*
X92658571Y-55447238D01*
X92563333Y-55542476D01*
X92468095Y-55590095D01*
X93991904Y-56304380D02*
X93420476Y-56304380D01*
X93706190Y-56304380D02*
X93706190Y-55304380D01*
X93610952Y-55447238D01*
X93515714Y-55542476D01*
X93420476Y-55590095D01*
%TO.C,R12*%
X92087142Y-68836380D02*
X91753809Y-68360190D01*
X91515714Y-68836380D02*
X91515714Y-67836380D01*
X91896666Y-67836380D01*
X91991904Y-67884000D01*
X92039523Y-67931619D01*
X92087142Y-68026857D01*
X92087142Y-68169714D01*
X92039523Y-68264952D01*
X91991904Y-68312571D01*
X91896666Y-68360190D01*
X91515714Y-68360190D01*
X93039523Y-68836380D02*
X92468095Y-68836380D01*
X92753809Y-68836380D02*
X92753809Y-67836380D01*
X92658571Y-67979238D01*
X92563333Y-68074476D01*
X92468095Y-68122095D01*
X93420476Y-67931619D02*
X93468095Y-67884000D01*
X93563333Y-67836380D01*
X93801428Y-67836380D01*
X93896666Y-67884000D01*
X93944285Y-67931619D01*
X93991904Y-68026857D01*
X93991904Y-68122095D01*
X93944285Y-68264952D01*
X93372857Y-68836380D01*
X93991904Y-68836380D01*
%TO.C,R13*%
X87007142Y-77640380D02*
X86673809Y-77164190D01*
X86435714Y-77640380D02*
X86435714Y-76640380D01*
X86816666Y-76640380D01*
X86911904Y-76688000D01*
X86959523Y-76735619D01*
X87007142Y-76830857D01*
X87007142Y-76973714D01*
X86959523Y-77068952D01*
X86911904Y-77116571D01*
X86816666Y-77164190D01*
X86435714Y-77164190D01*
X87959523Y-77640380D02*
X87388095Y-77640380D01*
X87673809Y-77640380D02*
X87673809Y-76640380D01*
X87578571Y-76783238D01*
X87483333Y-76878476D01*
X87388095Y-76926095D01*
X88292857Y-76640380D02*
X88911904Y-76640380D01*
X88578571Y-77021333D01*
X88721428Y-77021333D01*
X88816666Y-77068952D01*
X88864285Y-77116571D01*
X88911904Y-77211809D01*
X88911904Y-77449904D01*
X88864285Y-77545142D01*
X88816666Y-77592761D01*
X88721428Y-77640380D01*
X88435714Y-77640380D01*
X88340476Y-77592761D01*
X88292857Y-77545142D01*
%TO.C,R14*%
X87007142Y-90172380D02*
X86673809Y-89696190D01*
X86435714Y-90172380D02*
X86435714Y-89172380D01*
X86816666Y-89172380D01*
X86911904Y-89220000D01*
X86959523Y-89267619D01*
X87007142Y-89362857D01*
X87007142Y-89505714D01*
X86959523Y-89600952D01*
X86911904Y-89648571D01*
X86816666Y-89696190D01*
X86435714Y-89696190D01*
X87959523Y-90172380D02*
X87388095Y-90172380D01*
X87673809Y-90172380D02*
X87673809Y-89172380D01*
X87578571Y-89315238D01*
X87483333Y-89410476D01*
X87388095Y-89458095D01*
X88816666Y-89505714D02*
X88816666Y-90172380D01*
X88578571Y-89124761D02*
X88340476Y-89839047D01*
X88959523Y-89839047D01*
%TO.C,SW1*%
X107118666Y-49642761D02*
X107261523Y-49690380D01*
X107499619Y-49690380D01*
X107594857Y-49642761D01*
X107642476Y-49595142D01*
X107690095Y-49499904D01*
X107690095Y-49404666D01*
X107642476Y-49309428D01*
X107594857Y-49261809D01*
X107499619Y-49214190D01*
X107309142Y-49166571D01*
X107213904Y-49118952D01*
X107166285Y-49071333D01*
X107118666Y-48976095D01*
X107118666Y-48880857D01*
X107166285Y-48785619D01*
X107213904Y-48738000D01*
X107309142Y-48690380D01*
X107547238Y-48690380D01*
X107690095Y-48738000D01*
X108023428Y-48690380D02*
X108261523Y-49690380D01*
X108452000Y-48976095D01*
X108642476Y-49690380D01*
X108880571Y-48690380D01*
X109785333Y-49690380D02*
X109213904Y-49690380D01*
X109499619Y-49690380D02*
X109499619Y-48690380D01*
X109404380Y-48833238D01*
X109309142Y-48928476D01*
X109213904Y-48976095D01*
%TO.C,U1*%
X58440095Y-49130380D02*
X58440095Y-49939904D01*
X58487714Y-50035142D01*
X58535333Y-50082761D01*
X58630571Y-50130380D01*
X58821047Y-50130380D01*
X58916285Y-50082761D01*
X58963904Y-50035142D01*
X59011523Y-49939904D01*
X59011523Y-49130380D01*
X60011523Y-50130380D02*
X59440095Y-50130380D01*
X59725809Y-50130380D02*
X59725809Y-49130380D01*
X59630571Y-49273238D01*
X59535333Y-49368476D01*
X59440095Y-49416095D01*
%TO.C,U2*%
X135914380Y-62879904D02*
X136723904Y-62879904D01*
X136819142Y-62832285D01*
X136866761Y-62784666D01*
X136914380Y-62689428D01*
X136914380Y-62498952D01*
X136866761Y-62403714D01*
X136819142Y-62356095D01*
X136723904Y-62308476D01*
X135914380Y-62308476D01*
X136009619Y-61879904D02*
X135962000Y-61832285D01*
X135914380Y-61737047D01*
X135914380Y-61498952D01*
X135962000Y-61403714D01*
X136009619Y-61356095D01*
X136104857Y-61308476D01*
X136200095Y-61308476D01*
X136342952Y-61356095D01*
X136914380Y-61927523D01*
X136914380Y-61308476D01*
%TO.C,U3*%
X131088380Y-84469904D02*
X131897904Y-84469904D01*
X131993142Y-84422285D01*
X132040761Y-84374666D01*
X132088380Y-84279428D01*
X132088380Y-84088952D01*
X132040761Y-83993714D01*
X131993142Y-83946095D01*
X131897904Y-83898476D01*
X131088380Y-83898476D01*
X131088380Y-83517523D02*
X131088380Y-82898476D01*
X131469333Y-83231809D01*
X131469333Y-83088952D01*
X131516952Y-82993714D01*
X131564571Y-82946095D01*
X131659809Y-82898476D01*
X131897904Y-82898476D01*
X131993142Y-82946095D01*
X132040761Y-82993714D01*
X132088380Y-83088952D01*
X132088380Y-83374666D01*
X132040761Y-83469904D01*
X131993142Y-83517523D01*
%TO.C,U4*%
X117118380Y-62879904D02*
X117927904Y-62879904D01*
X118023142Y-62832285D01*
X118070761Y-62784666D01*
X118118380Y-62689428D01*
X118118380Y-62498952D01*
X118070761Y-62403714D01*
X118023142Y-62356095D01*
X117927904Y-62308476D01*
X117118380Y-62308476D01*
X117451714Y-61403714D02*
X118118380Y-61403714D01*
X117070761Y-61641809D02*
X117785047Y-61879904D01*
X117785047Y-61260857D01*
%TO.C,U5*%
X112292380Y-84469904D02*
X113101904Y-84469904D01*
X113197142Y-84422285D01*
X113244761Y-84374666D01*
X113292380Y-84279428D01*
X113292380Y-84088952D01*
X113244761Y-83993714D01*
X113197142Y-83946095D01*
X113101904Y-83898476D01*
X112292380Y-83898476D01*
X112292380Y-82946095D02*
X112292380Y-83422285D01*
X112768571Y-83469904D01*
X112720952Y-83422285D01*
X112673333Y-83327047D01*
X112673333Y-83088952D01*
X112720952Y-82993714D01*
X112768571Y-82946095D01*
X112863809Y-82898476D01*
X113101904Y-82898476D01*
X113197142Y-82946095D01*
X113244761Y-82993714D01*
X113292380Y-83088952D01*
X113292380Y-83327047D01*
X113244761Y-83422285D01*
X113197142Y-83469904D01*
%TO.C,U6*%
X98322380Y-62879904D02*
X99131904Y-62879904D01*
X99227142Y-62832285D01*
X99274761Y-62784666D01*
X99322380Y-62689428D01*
X99322380Y-62498952D01*
X99274761Y-62403714D01*
X99227142Y-62356095D01*
X99131904Y-62308476D01*
X98322380Y-62308476D01*
X98322380Y-61403714D02*
X98322380Y-61594190D01*
X98370000Y-61689428D01*
X98417619Y-61737047D01*
X98560476Y-61832285D01*
X98750952Y-61879904D01*
X99131904Y-61879904D01*
X99227142Y-61832285D01*
X99274761Y-61784666D01*
X99322380Y-61689428D01*
X99322380Y-61498952D01*
X99274761Y-61403714D01*
X99227142Y-61356095D01*
X99131904Y-61308476D01*
X98893809Y-61308476D01*
X98798571Y-61356095D01*
X98750952Y-61403714D01*
X98703333Y-61498952D01*
X98703333Y-61689428D01*
X98750952Y-61784666D01*
X98798571Y-61832285D01*
X98893809Y-61879904D01*
%TO.C,U7*%
X93242380Y-84215904D02*
X94051904Y-84215904D01*
X94147142Y-84168285D01*
X94194761Y-84120666D01*
X94242380Y-84025428D01*
X94242380Y-83834952D01*
X94194761Y-83739714D01*
X94147142Y-83692095D01*
X94051904Y-83644476D01*
X93242380Y-83644476D01*
X93242380Y-83263523D02*
X93242380Y-82596857D01*
X94242380Y-83025428D01*
%TO.C,D3*%
X117416380Y-46346095D02*
X116416380Y-46346095D01*
X116416380Y-46108000D01*
X116464000Y-45965142D01*
X116559238Y-45869904D01*
X116654476Y-45822285D01*
X116844952Y-45774666D01*
X116987809Y-45774666D01*
X117178285Y-45822285D01*
X117273523Y-45869904D01*
X117368761Y-45965142D01*
X117416380Y-46108000D01*
X117416380Y-46346095D01*
X116416380Y-45441333D02*
X116416380Y-44822285D01*
X116797333Y-45155619D01*
X116797333Y-45012761D01*
X116844952Y-44917523D01*
X116892571Y-44869904D01*
X116987809Y-44822285D01*
X117225904Y-44822285D01*
X117321142Y-44869904D01*
X117368761Y-44917523D01*
X117416380Y-45012761D01*
X117416380Y-45298476D01*
X117368761Y-45393714D01*
X117321142Y-45441333D01*
%TO.C,R1*%
X126626380Y-46536666D02*
X126150190Y-46870000D01*
X126626380Y-47108095D02*
X125626380Y-47108095D01*
X125626380Y-46727142D01*
X125674000Y-46631904D01*
X125721619Y-46584285D01*
X125816857Y-46536666D01*
X125959714Y-46536666D01*
X126054952Y-46584285D01*
X126102571Y-46631904D01*
X126150190Y-46727142D01*
X126150190Y-47108095D01*
X126626380Y-45584285D02*
X126626380Y-46155714D01*
X126626380Y-45870000D02*
X125626380Y-45870000D01*
X125769238Y-45965238D01*
X125864476Y-46060476D01*
X125912095Y-46155714D01*
%TO.C,R15*%
X38164380Y-66750857D02*
X37688190Y-67084190D01*
X38164380Y-67322285D02*
X37164380Y-67322285D01*
X37164380Y-66941333D01*
X37212000Y-66846095D01*
X37259619Y-66798476D01*
X37354857Y-66750857D01*
X37497714Y-66750857D01*
X37592952Y-66798476D01*
X37640571Y-66846095D01*
X37688190Y-66941333D01*
X37688190Y-67322285D01*
X38164380Y-65798476D02*
X38164380Y-66369904D01*
X38164380Y-66084190D02*
X37164380Y-66084190D01*
X37307238Y-66179428D01*
X37402476Y-66274666D01*
X37450095Y-66369904D01*
X37164380Y-64893714D02*
X37164380Y-65369904D01*
X37640571Y-65417523D01*
X37592952Y-65369904D01*
X37545333Y-65274666D01*
X37545333Y-65036571D01*
X37592952Y-64941333D01*
X37640571Y-64893714D01*
X37735809Y-64846095D01*
X37973904Y-64846095D01*
X38069142Y-64893714D01*
X38116761Y-64941333D01*
X38164380Y-65036571D01*
X38164380Y-65274666D01*
X38116761Y-65369904D01*
X38069142Y-65417523D01*
%TO.C,R16*%
X92089142Y-51410380D02*
X91755809Y-50934190D01*
X91517714Y-51410380D02*
X91517714Y-50410380D01*
X91898666Y-50410380D01*
X91993904Y-50458000D01*
X92041523Y-50505619D01*
X92089142Y-50600857D01*
X92089142Y-50743714D01*
X92041523Y-50838952D01*
X91993904Y-50886571D01*
X91898666Y-50934190D01*
X91517714Y-50934190D01*
X93041523Y-51410380D02*
X92470095Y-51410380D01*
X92755809Y-51410380D02*
X92755809Y-50410380D01*
X92660571Y-50553238D01*
X92565333Y-50648476D01*
X92470095Y-50696095D01*
X93898666Y-50410380D02*
X93708190Y-50410380D01*
X93612952Y-50458000D01*
X93565333Y-50505619D01*
X93470095Y-50648476D01*
X93422476Y-50838952D01*
X93422476Y-51219904D01*
X93470095Y-51315142D01*
X93517714Y-51362761D01*
X93612952Y-51410380D01*
X93803428Y-51410380D01*
X93898666Y-51362761D01*
X93946285Y-51315142D01*
X93993904Y-51219904D01*
X93993904Y-50981809D01*
X93946285Y-50886571D01*
X93898666Y-50838952D01*
X93803428Y-50791333D01*
X93612952Y-50791333D01*
X93517714Y-50838952D01*
X93470095Y-50886571D01*
X93422476Y-50981809D01*
%TO.C,TP3*%
X133318095Y-77384380D02*
X133889523Y-77384380D01*
X133603809Y-78384380D02*
X133603809Y-77384380D01*
X134222857Y-78384380D02*
X134222857Y-77384380D01*
X134603809Y-77384380D01*
X134699047Y-77432000D01*
X134746666Y-77479619D01*
X134794285Y-77574857D01*
X134794285Y-77717714D01*
X134746666Y-77812952D01*
X134699047Y-77860571D01*
X134603809Y-77908190D01*
X134222857Y-77908190D01*
X135127619Y-77384380D02*
X135746666Y-77384380D01*
X135413333Y-77765333D01*
X135556190Y-77765333D01*
X135651428Y-77812952D01*
X135699047Y-77860571D01*
X135746666Y-77955809D01*
X135746666Y-78193904D01*
X135699047Y-78289142D01*
X135651428Y-78336761D01*
X135556190Y-78384380D01*
X135270476Y-78384380D01*
X135175238Y-78336761D01*
X135127619Y-78289142D01*
%TO.C,TP1*%
X50348095Y-58504380D02*
X50919523Y-58504380D01*
X50633809Y-59504380D02*
X50633809Y-58504380D01*
X51252857Y-59504380D02*
X51252857Y-58504380D01*
X51633809Y-58504380D01*
X51729047Y-58552000D01*
X51776666Y-58599619D01*
X51824285Y-58694857D01*
X51824285Y-58837714D01*
X51776666Y-58932952D01*
X51729047Y-58980571D01*
X51633809Y-59028190D01*
X51252857Y-59028190D01*
X52776666Y-59504380D02*
X52205238Y-59504380D01*
X52490952Y-59504380D02*
X52490952Y-58504380D01*
X52395714Y-58647238D01*
X52300476Y-58742476D01*
X52205238Y-58790095D01*
%TO.C,TP2*%
X101210095Y-51572380D02*
X101781523Y-51572380D01*
X101495809Y-52572380D02*
X101495809Y-51572380D01*
X102114857Y-52572380D02*
X102114857Y-51572380D01*
X102495809Y-51572380D01*
X102591047Y-51620000D01*
X102638666Y-51667619D01*
X102686285Y-51762857D01*
X102686285Y-51905714D01*
X102638666Y-52000952D01*
X102591047Y-52048571D01*
X102495809Y-52096190D01*
X102114857Y-52096190D01*
X103067238Y-51667619D02*
X103114857Y-51620000D01*
X103210095Y-51572380D01*
X103448190Y-51572380D01*
X103543428Y-51620000D01*
X103591047Y-51667619D01*
X103638666Y-51762857D01*
X103638666Y-51858095D01*
X103591047Y-52000952D01*
X103019619Y-52572380D01*
X103638666Y-52572380D01*
D12*
%TO.C,C1*%
X50862000Y-54008000D02*
G75*
G03*
X50862000Y-54008000I-6370000J0D01*
G01*
X39850000Y-49687000D02*
X49134000Y-49687000D01*
X45932000Y-52687000D02*
X50684000Y-52687000D01*
X45932000Y-51247000D02*
X50194000Y-51247000D01*
X38212000Y-53207000D02*
X50772000Y-53207000D01*
X38164000Y-53848000D02*
X50820000Y-53848000D01*
X39607000Y-49967000D02*
X49377000Y-49967000D01*
X39887000Y-49647000D02*
X49097000Y-49647000D01*
X40292000Y-60200082D02*
X41542000Y-60200082D01*
X38163000Y-53888000D02*
X50821000Y-53888000D01*
X39095000Y-50687000D02*
X43052000Y-50687000D01*
X38421000Y-52207000D02*
X43052000Y-52207000D01*
X45932000Y-50207000D02*
X49565000Y-50207000D01*
X39390000Y-50247000D02*
X43052000Y-50247000D01*
X38647000Y-51567000D02*
X43052000Y-51567000D01*
X38699000Y-51447000D02*
X43052000Y-51447000D01*
X38433000Y-52167000D02*
X43052000Y-52167000D01*
X38956000Y-50927000D02*
X43052000Y-50927000D01*
X40003000Y-49527000D02*
X48981000Y-49527000D01*
X45932000Y-50807000D02*
X49960000Y-50807000D01*
X43070000Y-47807000D02*
X45914000Y-47807000D01*
X40688000Y-48927000D02*
X48296000Y-48927000D01*
X39145000Y-50607000D02*
X43052000Y-50607000D01*
X45932000Y-52527000D02*
X50648000Y-52527000D01*
X45932000Y-50287000D02*
X49623000Y-50287000D01*
X38978000Y-50887000D02*
X43052000Y-50887000D01*
X45932000Y-50567000D02*
X49814000Y-50567000D01*
X38174000Y-53608000D02*
X50810000Y-53608000D01*
X41028000Y-48687000D02*
X47956000Y-48687000D01*
X43464000Y-47727000D02*
X45520000Y-47727000D01*
X45932000Y-52567000D02*
X50658000Y-52567000D01*
X38615000Y-51647000D02*
X43052000Y-51647000D01*
X40852000Y-48807000D02*
X48132000Y-48807000D01*
X38891000Y-51047000D02*
X43052000Y-51047000D01*
X38771000Y-51287000D02*
X43052000Y-51287000D01*
X45932000Y-52847000D02*
X50716000Y-52847000D01*
X38207000Y-53247000D02*
X50777000Y-53247000D01*
X38234000Y-53047000D02*
X50750000Y-53047000D01*
X38228000Y-53087000D02*
X50756000Y-53087000D01*
X39196000Y-50527000D02*
X43052000Y-50527000D01*
X40909000Y-48767000D02*
X48075000Y-48767000D01*
X38716000Y-51407000D02*
X43052000Y-51407000D01*
X39419000Y-50207000D02*
X43052000Y-50207000D01*
X38247000Y-52967000D02*
X50737000Y-52967000D01*
X45932000Y-51047000D02*
X50093000Y-51047000D01*
X45932000Y-50527000D02*
X49788000Y-50527000D01*
X41496000Y-48407000D02*
X47488000Y-48407000D01*
X41728000Y-48287000D02*
X47256000Y-48287000D01*
X45932000Y-50447000D02*
X49735000Y-50447000D01*
X42180000Y-48087000D02*
X46804000Y-48087000D01*
X38753000Y-51327000D02*
X43052000Y-51327000D01*
X45932000Y-50887000D02*
X50006000Y-50887000D01*
X38539000Y-51847000D02*
X43052000Y-51847000D01*
X45932000Y-52607000D02*
X50667000Y-52607000D01*
X40437000Y-49127000D02*
X48547000Y-49127000D01*
X45932000Y-52087000D02*
X50526000Y-52087000D01*
X38664000Y-51527000D02*
X43052000Y-51527000D01*
X38850000Y-51127000D02*
X43052000Y-51127000D01*
X38168000Y-53728000D02*
X50816000Y-53728000D01*
X38180000Y-53528000D02*
X50804000Y-53528000D01*
X45932000Y-50847000D02*
X49983000Y-50847000D01*
X38183000Y-53488000D02*
X50801000Y-53488000D01*
X38553000Y-51807000D02*
X43052000Y-51807000D01*
X45932000Y-51527000D02*
X50320000Y-51527000D01*
X38484000Y-52007000D02*
X43052000Y-52007000D01*
X45932000Y-51687000D02*
X50385000Y-51687000D01*
X40796000Y-48847000D02*
X48188000Y-48847000D01*
X38734000Y-51367000D02*
X43052000Y-51367000D01*
X38166000Y-53768000D02*
X50818000Y-53768000D01*
X38172000Y-53648000D02*
X50812000Y-53648000D01*
X38254000Y-52927000D02*
X43052000Y-52927000D01*
X38177000Y-53568000D02*
X50807000Y-53568000D01*
X39120000Y-50647000D02*
X43052000Y-50647000D01*
X38584000Y-51727000D02*
X43052000Y-51727000D01*
X45932000Y-52207000D02*
X50563000Y-52207000D01*
X42082000Y-48127000D02*
X46902000Y-48127000D01*
X39047000Y-50767000D02*
X43052000Y-50767000D01*
X45932000Y-52007000D02*
X50500000Y-52007000D01*
X42508000Y-47967000D02*
X46476000Y-47967000D01*
X45932000Y-50687000D02*
X49889000Y-50687000D01*
X45932000Y-50327000D02*
X49652000Y-50327000D01*
X40917000Y-60825082D02*
X40917000Y-59575082D01*
X38162000Y-53968000D02*
X50822000Y-53968000D01*
X38631000Y-51607000D02*
X43052000Y-51607000D01*
X45932000Y-50247000D02*
X49594000Y-50247000D01*
X38162000Y-53928000D02*
X50822000Y-53928000D01*
X42631000Y-47927000D02*
X46353000Y-47927000D01*
X45932000Y-50607000D02*
X49839000Y-50607000D01*
X39304000Y-50367000D02*
X43052000Y-50367000D01*
X40742000Y-48887000D02*
X48242000Y-48887000D01*
X39024000Y-50807000D02*
X43052000Y-50807000D01*
X38308000Y-52647000D02*
X43052000Y-52647000D01*
X45932000Y-50647000D02*
X49864000Y-50647000D01*
X45932000Y-50127000D02*
X49504000Y-50127000D01*
X40043000Y-49487000D02*
X48941000Y-49487000D01*
X38317000Y-52607000D02*
X43052000Y-52607000D01*
X45932000Y-51207000D02*
X50174000Y-51207000D01*
X38810000Y-51207000D02*
X43052000Y-51207000D01*
X39480000Y-50127000D02*
X43052000Y-50127000D01*
X38170000Y-53688000D02*
X50814000Y-53688000D01*
X38870000Y-51087000D02*
X43052000Y-51087000D01*
X45932000Y-50367000D02*
X49680000Y-50367000D01*
X40968000Y-48727000D02*
X48016000Y-48727000D01*
X45932000Y-51767000D02*
X50416000Y-51767000D01*
X45932000Y-52927000D02*
X50730000Y-52927000D01*
X38346000Y-52487000D02*
X43052000Y-52487000D01*
X38366000Y-52407000D02*
X43052000Y-52407000D01*
X45932000Y-52727000D02*
X50693000Y-52727000D01*
X39925000Y-49607000D02*
X49059000Y-49607000D01*
X38445000Y-52127000D02*
X43052000Y-52127000D01*
X39964000Y-49567000D02*
X49020000Y-49567000D01*
X39071000Y-50727000D02*
X43052000Y-50727000D01*
X38276000Y-52807000D02*
X43052000Y-52807000D01*
X39222000Y-50487000D02*
X43052000Y-50487000D01*
X45932000Y-51367000D02*
X50250000Y-51367000D01*
X40125000Y-49407000D02*
X48859000Y-49407000D01*
X42283000Y-48047000D02*
X46701000Y-48047000D01*
X40390000Y-49167000D02*
X48594000Y-49167000D01*
X41811000Y-48247000D02*
X47173000Y-48247000D01*
X38261000Y-52887000D02*
X43052000Y-52887000D01*
X41898000Y-48207000D02*
X47086000Y-48207000D01*
X39673000Y-49887000D02*
X49311000Y-49887000D01*
X38398000Y-52287000D02*
X43052000Y-52287000D01*
X38240000Y-53007000D02*
X50744000Y-53007000D01*
X38525000Y-51887000D02*
X43052000Y-51887000D01*
X38268000Y-52847000D02*
X43052000Y-52847000D01*
X39640000Y-49927000D02*
X49344000Y-49927000D01*
X38162000Y-54008000D02*
X50822000Y-54008000D01*
X39542000Y-50047000D02*
X49442000Y-50047000D01*
X45932000Y-51287000D02*
X50213000Y-51287000D01*
X45932000Y-51607000D02*
X50353000Y-51607000D01*
X41352000Y-48487000D02*
X47632000Y-48487000D01*
X38190000Y-53408000D02*
X50794000Y-53408000D01*
X39574000Y-50007000D02*
X49410000Y-50007000D01*
X45932000Y-52127000D02*
X50539000Y-52127000D01*
X40535000Y-49047000D02*
X48449000Y-49047000D01*
X38681000Y-51487000D02*
X43052000Y-51487000D01*
X40485000Y-49087000D02*
X48499000Y-49087000D01*
X40298000Y-49247000D02*
X48686000Y-49247000D01*
X45932000Y-51087000D02*
X50114000Y-51087000D01*
X39332000Y-50327000D02*
X43052000Y-50327000D01*
X42764000Y-47887000D02*
X46220000Y-47887000D01*
X38291000Y-52727000D02*
X43052000Y-52727000D01*
X39707000Y-49847000D02*
X49277000Y-49847000D01*
X45932000Y-52447000D02*
X50629000Y-52447000D01*
X45932000Y-51967000D02*
X50487000Y-51967000D01*
X45932000Y-50407000D02*
X49708000Y-50407000D01*
X39001000Y-50847000D02*
X43052000Y-50847000D01*
X43735000Y-47687000D02*
X45249000Y-47687000D01*
X42909000Y-47847000D02*
X46075000Y-47847000D01*
X45932000Y-50087000D02*
X49474000Y-50087000D01*
X45932000Y-52487000D02*
X50638000Y-52487000D01*
X45932000Y-52807000D02*
X50708000Y-52807000D01*
X40585000Y-49007000D02*
X48399000Y-49007000D01*
X41423000Y-48447000D02*
X47561000Y-48447000D01*
X38202000Y-53287000D02*
X50782000Y-53287000D01*
X38300000Y-52687000D02*
X43052000Y-52687000D01*
X45932000Y-51727000D02*
X50400000Y-51727000D01*
X45932000Y-52887000D02*
X50723000Y-52887000D01*
X40344000Y-49207000D02*
X48640000Y-49207000D01*
X38376000Y-52367000D02*
X43052000Y-52367000D01*
X45932000Y-50487000D02*
X49762000Y-50487000D01*
X38497000Y-51967000D02*
X43052000Y-51967000D01*
X39814000Y-49727000D02*
X49170000Y-49727000D01*
X44175000Y-47647000D02*
X44809000Y-47647000D01*
X38336000Y-52527000D02*
X43052000Y-52527000D01*
X38326000Y-52567000D02*
X43052000Y-52567000D01*
X38409000Y-52247000D02*
X43052000Y-52247000D01*
X41988000Y-48167000D02*
X46996000Y-48167000D01*
X45932000Y-50167000D02*
X49535000Y-50167000D01*
X40254000Y-49287000D02*
X48730000Y-49287000D01*
X38568000Y-51767000D02*
X43052000Y-51767000D01*
X45932000Y-51847000D02*
X50445000Y-51847000D01*
X39510000Y-50087000D02*
X43052000Y-50087000D01*
X38217000Y-53167000D02*
X50767000Y-53167000D01*
X45932000Y-52047000D02*
X50513000Y-52047000D01*
X41153000Y-48607000D02*
X47831000Y-48607000D01*
X38223000Y-53127000D02*
X50761000Y-53127000D01*
X45932000Y-51807000D02*
X50431000Y-51807000D01*
X40636000Y-48967000D02*
X48348000Y-48967000D01*
X39276000Y-50407000D02*
X43052000Y-50407000D01*
X40167000Y-49367000D02*
X48817000Y-49367000D01*
X38283000Y-52767000D02*
X43052000Y-52767000D01*
X45932000Y-51887000D02*
X50459000Y-51887000D01*
X38511000Y-51927000D02*
X43052000Y-51927000D01*
X45932000Y-50727000D02*
X49913000Y-50727000D01*
X38165000Y-53808000D02*
X50819000Y-53808000D01*
X45932000Y-52647000D02*
X50676000Y-52647000D01*
X45932000Y-51647000D02*
X50369000Y-51647000D01*
X42392000Y-48007000D02*
X46592000Y-48007000D01*
X45932000Y-52287000D02*
X50586000Y-52287000D01*
X45932000Y-51567000D02*
X50337000Y-51567000D01*
X39361000Y-50287000D02*
X43052000Y-50287000D01*
X39742000Y-49807000D02*
X49242000Y-49807000D01*
X45932000Y-51487000D02*
X50303000Y-51487000D01*
X40210000Y-49327000D02*
X48774000Y-49327000D01*
X41284000Y-48527000D02*
X47700000Y-48527000D01*
X45932000Y-51927000D02*
X50473000Y-51927000D01*
X41648000Y-48327000D02*
X47336000Y-48327000D01*
X38934000Y-50967000D02*
X43052000Y-50967000D01*
X40084000Y-49447000D02*
X48900000Y-49447000D01*
X45932000Y-52367000D02*
X50608000Y-52367000D01*
X45932000Y-50927000D02*
X50028000Y-50927000D01*
X38471000Y-52047000D02*
X43052000Y-52047000D01*
X38790000Y-51247000D02*
X43052000Y-51247000D01*
X45932000Y-51407000D02*
X50268000Y-51407000D01*
X45932000Y-51127000D02*
X50134000Y-51127000D01*
X45932000Y-52247000D02*
X50575000Y-52247000D01*
X45932000Y-52327000D02*
X50597000Y-52327000D01*
X39249000Y-50447000D02*
X43052000Y-50447000D01*
X45932000Y-50767000D02*
X49937000Y-50767000D01*
X38194000Y-53368000D02*
X50790000Y-53368000D01*
X45932000Y-52167000D02*
X50551000Y-52167000D01*
X45932000Y-51167000D02*
X50154000Y-51167000D01*
X41217000Y-48567000D02*
X47767000Y-48567000D01*
X38186000Y-53448000D02*
X50798000Y-53448000D01*
X45932000Y-50967000D02*
X50050000Y-50967000D01*
X38198000Y-53328000D02*
X50786000Y-53328000D01*
X45932000Y-52767000D02*
X50701000Y-52767000D01*
X41090000Y-48647000D02*
X47894000Y-48647000D01*
X38387000Y-52327000D02*
X43052000Y-52327000D01*
X39449000Y-50167000D02*
X43052000Y-50167000D01*
X45932000Y-51447000D02*
X50285000Y-51447000D01*
X45932000Y-51327000D02*
X50231000Y-51327000D01*
X38830000Y-51167000D02*
X43052000Y-51167000D01*
X41571000Y-48367000D02*
X47413000Y-48367000D01*
X45932000Y-51007000D02*
X50072000Y-51007000D01*
X38912000Y-51007000D02*
X43052000Y-51007000D01*
X43251000Y-47767000D02*
X45733000Y-47767000D01*
X38458000Y-52087000D02*
X43052000Y-52087000D01*
X38355000Y-52447000D02*
X43052000Y-52447000D01*
X45932000Y-52407000D02*
X50618000Y-52407000D01*
X39778000Y-49767000D02*
X49206000Y-49767000D01*
X39170000Y-50567000D02*
X43052000Y-50567000D01*
X38599000Y-51687000D02*
X43052000Y-51687000D01*
%TO.C,C2*%
X84732000Y-53968000D02*
G75*
G03*
X84732000Y-53968000I-5120000J0D01*
G01*
X74874000Y-52127000D02*
X78371000Y-52127000D01*
X74844000Y-52207000D02*
X78371000Y-52207000D01*
X78102000Y-49087000D02*
X81122000Y-49087000D01*
X76723000Y-49767000D02*
X82501000Y-49767000D01*
X76667000Y-49807000D02*
X82557000Y-49807000D01*
X74638000Y-52927000D02*
X84586000Y-52927000D01*
X76176000Y-50207000D02*
X83048000Y-50207000D01*
X80853000Y-50527000D02*
X83365000Y-50527000D01*
X77247000Y-49447000D02*
X81977000Y-49447000D01*
X80853000Y-51127000D02*
X83833000Y-51127000D01*
X80853000Y-51927000D02*
X84269000Y-51927000D01*
X76134000Y-50247000D02*
X78371000Y-50247000D01*
X75108000Y-51607000D02*
X78371000Y-51607000D01*
X80853000Y-50847000D02*
X83632000Y-50847000D01*
X80853000Y-52647000D02*
X84519000Y-52647000D01*
X76967000Y-49607000D02*
X82257000Y-49607000D01*
X75474000Y-51007000D02*
X78371000Y-51007000D01*
X75788000Y-50607000D02*
X78371000Y-50607000D01*
X74905000Y-52047000D02*
X78371000Y-52047000D01*
X78750000Y-48927000D02*
X80474000Y-48927000D01*
X80853000Y-52127000D02*
X84350000Y-52127000D01*
X80853000Y-52527000D02*
X84486000Y-52527000D01*
X74694000Y-52687000D02*
X78371000Y-52687000D01*
X74815000Y-52287000D02*
X78371000Y-52287000D01*
X77668000Y-49247000D02*
X81556000Y-49247000D01*
X80853000Y-51447000D02*
X84029000Y-51447000D01*
X75265000Y-51327000D02*
X78371000Y-51327000D01*
X76903000Y-49647000D02*
X82321000Y-49647000D01*
X76737000Y-59447646D02*
X76737000Y-58447646D01*
X80853000Y-52247000D02*
X84395000Y-52247000D01*
X80853000Y-50647000D02*
X83470000Y-50647000D01*
X80853000Y-50287000D02*
X83132000Y-50287000D01*
X76558000Y-49887000D02*
X82666000Y-49887000D01*
X80853000Y-50727000D02*
X83537000Y-50727000D01*
X74567000Y-53368000D02*
X84657000Y-53368000D01*
X74588000Y-53207000D02*
X84636000Y-53207000D01*
X74554000Y-53488000D02*
X84670000Y-53488000D01*
X74801000Y-52327000D02*
X78371000Y-52327000D01*
X74750000Y-52487000D02*
X78371000Y-52487000D01*
X80853000Y-51847000D02*
X84233000Y-51847000D01*
X74656000Y-52847000D02*
X84568000Y-52847000D01*
X75532000Y-50927000D02*
X78371000Y-50927000D01*
X74955000Y-51927000D02*
X78371000Y-51927000D01*
X80853000Y-52447000D02*
X84462000Y-52447000D01*
X80853000Y-52087000D02*
X84335000Y-52087000D01*
X80853000Y-50927000D02*
X83692000Y-50927000D01*
X80853000Y-51247000D02*
X83910000Y-51247000D01*
X75289000Y-51287000D02*
X78371000Y-51287000D01*
X74572000Y-53328000D02*
X84652000Y-53328000D01*
X78382000Y-49007000D02*
X80842000Y-49007000D01*
X80853000Y-51767000D02*
X84196000Y-51767000D01*
X76842000Y-49687000D02*
X82382000Y-49687000D01*
X74532000Y-53968000D02*
X84692000Y-53968000D01*
X74622000Y-53007000D02*
X84602000Y-53007000D01*
X74788000Y-52367000D02*
X78371000Y-52367000D01*
X80853000Y-51727000D02*
X84176000Y-51727000D01*
X80853000Y-51487000D02*
X84052000Y-51487000D01*
X77487000Y-49327000D02*
X81737000Y-49327000D01*
X75754000Y-50647000D02*
X78371000Y-50647000D01*
X80853000Y-50967000D02*
X83722000Y-50967000D01*
X80853000Y-52327000D02*
X84423000Y-52327000D01*
X75048000Y-51727000D02*
X78371000Y-51727000D01*
X75365000Y-51167000D02*
X78371000Y-51167000D01*
X77982000Y-49127000D02*
X81242000Y-49127000D01*
X80853000Y-50687000D02*
X83504000Y-50687000D01*
X76782000Y-49727000D02*
X82442000Y-49727000D01*
X80853000Y-51967000D02*
X84286000Y-51967000D01*
X74889000Y-52087000D02*
X78371000Y-52087000D01*
X74973000Y-51887000D02*
X78371000Y-51887000D01*
X80853000Y-50447000D02*
X83291000Y-50447000D01*
X80853000Y-51607000D02*
X84116000Y-51607000D01*
X74544000Y-53608000D02*
X84680000Y-53608000D01*
X77173000Y-49487000D02*
X82051000Y-49487000D01*
X74715000Y-52607000D02*
X78371000Y-52607000D01*
X80853000Y-52607000D02*
X84509000Y-52607000D01*
X80853000Y-52047000D02*
X84319000Y-52047000D01*
X74705000Y-52647000D02*
X78371000Y-52647000D01*
X74938000Y-51967000D02*
X78371000Y-51967000D01*
X75972000Y-50407000D02*
X78371000Y-50407000D01*
X74537000Y-53728000D02*
X84687000Y-53728000D01*
X74684000Y-52727000D02*
X84540000Y-52727000D01*
X74858000Y-52167000D02*
X78371000Y-52167000D01*
X74542000Y-53648000D02*
X84682000Y-53648000D01*
X74630000Y-52967000D02*
X84594000Y-52967000D01*
X74727000Y-52567000D02*
X78371000Y-52567000D01*
X75720000Y-50687000D02*
X78371000Y-50687000D01*
X75150000Y-51527000D02*
X78371000Y-51527000D01*
X75687000Y-50727000D02*
X78371000Y-50727000D01*
X74738000Y-52527000D02*
X78371000Y-52527000D01*
X80853000Y-51407000D02*
X84007000Y-51407000D01*
X76358000Y-50047000D02*
X82866000Y-50047000D01*
X75129000Y-51567000D02*
X78371000Y-51567000D01*
X75446000Y-51047000D02*
X78371000Y-51047000D01*
X77323000Y-49407000D02*
X81901000Y-49407000D01*
X76092000Y-50287000D02*
X78371000Y-50287000D01*
X74550000Y-53528000D02*
X84674000Y-53528000D01*
X80853000Y-50407000D02*
X83252000Y-50407000D01*
X75067000Y-51687000D02*
X78371000Y-51687000D01*
X80853000Y-51327000D02*
X83959000Y-51327000D01*
X77766000Y-49207000D02*
X81458000Y-49207000D01*
X76456000Y-49967000D02*
X82768000Y-49967000D01*
X80853000Y-52407000D02*
X84449000Y-52407000D01*
X74539000Y-53688000D02*
X84685000Y-53688000D01*
X75217000Y-51407000D02*
X78371000Y-51407000D01*
X76506000Y-49927000D02*
X82718000Y-49927000D01*
X80853000Y-50607000D02*
X83436000Y-50607000D01*
X77033000Y-49567000D02*
X82191000Y-49567000D01*
X80853000Y-51687000D02*
X84157000Y-51687000D01*
X80853000Y-51007000D02*
X83750000Y-51007000D01*
X80853000Y-52207000D02*
X84380000Y-52207000D01*
X74601000Y-53127000D02*
X84623000Y-53127000D01*
X75087000Y-51647000D02*
X78371000Y-51647000D01*
X76011000Y-50367000D02*
X78371000Y-50367000D01*
X75172000Y-51487000D02*
X78371000Y-51487000D01*
X75562000Y-50887000D02*
X78371000Y-50887000D01*
X75623000Y-50807000D02*
X78371000Y-50807000D01*
X76406000Y-50007000D02*
X82818000Y-50007000D01*
X75502000Y-50967000D02*
X78371000Y-50967000D01*
X74534000Y-53808000D02*
X84690000Y-53808000D01*
X80853000Y-51087000D02*
X83806000Y-51087000D01*
X74533000Y-53848000D02*
X84691000Y-53848000D01*
X77403000Y-49367000D02*
X81821000Y-49367000D01*
X75391000Y-51127000D02*
X78371000Y-51127000D01*
X80853000Y-51527000D02*
X84074000Y-51527000D01*
X80853000Y-51567000D02*
X84095000Y-51567000D01*
X80853000Y-50767000D02*
X83569000Y-50767000D01*
X75028000Y-51767000D02*
X78371000Y-51767000D01*
X80853000Y-52567000D02*
X84497000Y-52567000D01*
X75823000Y-50567000D02*
X78371000Y-50567000D01*
X75933000Y-50447000D02*
X78371000Y-50447000D01*
X74594000Y-53167000D02*
X84630000Y-53167000D01*
X75339000Y-51207000D02*
X78371000Y-51207000D01*
X74762000Y-52447000D02*
X78371000Y-52447000D01*
X80853000Y-50367000D02*
X83213000Y-50367000D01*
X74608000Y-53087000D02*
X84616000Y-53087000D01*
X80853000Y-52687000D02*
X84530000Y-52687000D01*
X80853000Y-52287000D02*
X84409000Y-52287000D01*
X80853000Y-51367000D02*
X83983000Y-51367000D01*
X75592000Y-50847000D02*
X78371000Y-50847000D01*
X74532000Y-53928000D02*
X84692000Y-53928000D01*
X80853000Y-52007000D02*
X84302000Y-52007000D01*
X75314000Y-51247000D02*
X78371000Y-51247000D01*
X75009000Y-51807000D02*
X78371000Y-51807000D01*
X74647000Y-52887000D02*
X84577000Y-52887000D01*
X77102000Y-49527000D02*
X82122000Y-49527000D01*
X78234000Y-49047000D02*
X80990000Y-49047000D01*
X76051000Y-50327000D02*
X78371000Y-50327000D01*
X74829000Y-52247000D02*
X78371000Y-52247000D01*
X80853000Y-51047000D02*
X83778000Y-51047000D01*
X74577000Y-53288000D02*
X84647000Y-53288000D01*
X76237000Y-58947646D02*
X77237000Y-58947646D01*
X80853000Y-50567000D02*
X83401000Y-50567000D01*
X75655000Y-50767000D02*
X78371000Y-50767000D01*
X74558000Y-53448000D02*
X84666000Y-53448000D01*
X80853000Y-50487000D02*
X83328000Y-50487000D01*
X76220000Y-50167000D02*
X83004000Y-50167000D01*
X80853000Y-51887000D02*
X84251000Y-51887000D01*
X74665000Y-52807000D02*
X84559000Y-52807000D01*
X74922000Y-52007000D02*
X78371000Y-52007000D01*
X80853000Y-51207000D02*
X83885000Y-51207000D01*
X77575000Y-49287000D02*
X81649000Y-49287000D01*
X74535000Y-53768000D02*
X84689000Y-53768000D01*
X74547000Y-53568000D02*
X84677000Y-53568000D01*
X78550000Y-48967000D02*
X80674000Y-48967000D01*
X74775000Y-52407000D02*
X78371000Y-52407000D01*
X74532000Y-53888000D02*
X84692000Y-53888000D01*
X80853000Y-52367000D02*
X84436000Y-52367000D01*
X75195000Y-51447000D02*
X78371000Y-51447000D01*
X75241000Y-51367000D02*
X78371000Y-51367000D01*
X74991000Y-51847000D02*
X78371000Y-51847000D01*
X74674000Y-52767000D02*
X84550000Y-52767000D01*
X80853000Y-50247000D02*
X83090000Y-50247000D01*
X75418000Y-51087000D02*
X78371000Y-51087000D01*
X80853000Y-50327000D02*
X83173000Y-50327000D01*
X80853000Y-52167000D02*
X84366000Y-52167000D01*
X80853000Y-51807000D02*
X84215000Y-51807000D01*
X80853000Y-50807000D02*
X83601000Y-50807000D01*
X76265000Y-50127000D02*
X82959000Y-50127000D01*
X76311000Y-50087000D02*
X82913000Y-50087000D01*
X80853000Y-51647000D02*
X84137000Y-51647000D01*
X79013000Y-48887000D02*
X80211000Y-48887000D01*
X77870000Y-49167000D02*
X81354000Y-49167000D01*
X74615000Y-53047000D02*
X84609000Y-53047000D01*
X80853000Y-51287000D02*
X83935000Y-51287000D01*
X74582000Y-53247000D02*
X84642000Y-53247000D01*
X80853000Y-50887000D02*
X83662000Y-50887000D01*
X75859000Y-50527000D02*
X78371000Y-50527000D01*
X74562000Y-53408000D02*
X84662000Y-53408000D01*
X76612000Y-49847000D02*
X82612000Y-49847000D01*
X80853000Y-52487000D02*
X84474000Y-52487000D01*
X75896000Y-50487000D02*
X78371000Y-50487000D01*
X80853000Y-51167000D02*
X83859000Y-51167000D01*
%TO.C,J1*%
X47422000Y-88824000D02*
X53202000Y-88824000D01*
X47422000Y-93924000D02*
X53202000Y-93924000D01*
X47182000Y-94044000D02*
X47182000Y-94684000D01*
X47422000Y-94444000D02*
X53202000Y-94444000D01*
X47422000Y-87704000D02*
X47422000Y-94444000D01*
X47422000Y-87704000D02*
X53202000Y-87704000D01*
X53202000Y-87704000D02*
X53202000Y-94444000D01*
X47182000Y-94684000D02*
X47582000Y-94684000D01*
%TO.C,J2*%
X57836000Y-87704000D02*
X76316000Y-87704000D01*
X57836000Y-87704000D02*
X57836000Y-94444000D01*
X57836000Y-88824000D02*
X76316000Y-88824000D01*
X57836000Y-93924000D02*
X76316000Y-93924000D01*
X57836000Y-94444000D02*
X76316000Y-94444000D01*
X76316000Y-87704000D02*
X76316000Y-94444000D01*
X57596000Y-94044000D02*
X57596000Y-94684000D01*
X57596000Y-94684000D02*
X57996000Y-94684000D01*
%TO.C,J3*%
X45740000Y-45160000D02*
X45740000Y-42560000D01*
X45740000Y-42560000D02*
X43140000Y-42560000D01*
X43140000Y-39960000D02*
X94060000Y-39960000D01*
X45740000Y-45160000D02*
X94060000Y-45160000D01*
X44470000Y-45160000D02*
X43140000Y-45160000D01*
X43140000Y-45160000D02*
X43140000Y-43830000D01*
X94060000Y-45160000D02*
X94060000Y-39960000D01*
X43140000Y-42560000D02*
X43140000Y-39960000D01*
%TO.C,D1*%
X54572000Y-71428000D02*
G75*
G03*
X54572000Y-71428000I-2000000J0D01*
G01*
X44422000Y-65278000D02*
X44422000Y-79578000D01*
X60722000Y-63278000D02*
X46422000Y-63278000D01*
X46422000Y-63278000D02*
X44422000Y-65278000D01*
X60722000Y-79578000D02*
X60722000Y-63278000D01*
X44422000Y-79578000D02*
X60722000Y-79578000D01*
%TO.C,D2*%
X71637000Y-53778000D02*
G75*
G03*
X71637000Y-53778000I-2785000J0D01*
G01*
X68852000Y-56563000D02*
X68852000Y-57358000D01*
%TO.C,D4*%
X123424000Y-52466000D02*
G75*
G03*
X123424000Y-52466000I-2500000J0D01*
G01*
X120924462Y-49476000D02*
G75*
G03*
X119379170Y-55026000I-462J-2990000D01*
G01*
X122468830Y-55026000D02*
G75*
G03*
X120923538Y-49476000I-1544830J2560000D01*
G01*
X119379000Y-55026000D02*
X122469000Y-55026000D01*
%TO.C,D5*%
X125799684Y-60309555D02*
G75*
G03*
X121522000Y-61338000I-1827684J-1808445D01*
G01*
X121522000Y-62938000D02*
G75*
G03*
X125813741Y-63929875I2450000J820000D01*
G01*
X125822000Y-63918000D02*
X125822000Y-60318000D01*
%TO.C,D6*%
X116696000Y-84528000D02*
G75*
G03*
X120987741Y-85519875I2450000J820000D01*
G01*
X120973684Y-81899555D02*
G75*
G03*
X116696000Y-82928000I-1827684J-1808445D01*
G01*
X120996000Y-85508000D02*
X120996000Y-81908000D01*
%TO.C,D7*%
X102726000Y-62938000D02*
G75*
G03*
X107017741Y-63929875I2450000J820000D01*
G01*
X107003684Y-60309555D02*
G75*
G03*
X102726000Y-61338000I-1827684J-1808445D01*
G01*
X107026000Y-63918000D02*
X107026000Y-60318000D01*
%TO.C,D8*%
X102177684Y-81899555D02*
G75*
G03*
X97900000Y-82928000I-1827684J-1808445D01*
G01*
X97900000Y-84528000D02*
G75*
G03*
X102191741Y-85519875I2450000J820000D01*
G01*
X102200000Y-85508000D02*
X102200000Y-81908000D01*
%TO.C,D9*%
X88207684Y-60309555D02*
G75*
G03*
X83930000Y-61338000I-1827684J-1808445D01*
G01*
X83930000Y-62938000D02*
G75*
G03*
X88221741Y-63929875I2450000J820000D01*
G01*
X88230000Y-63918000D02*
X88230000Y-60318000D01*
%TO.C,D10*%
X78850000Y-84274000D02*
G75*
G03*
X83141741Y-85265875I2450000J820000D01*
G01*
X83127684Y-81645555D02*
G75*
G03*
X78850000Y-82674000I-1827684J-1808445D01*
G01*
X83150000Y-85254000D02*
X83150000Y-81654000D01*
D10*
%TO.C,F1*%
X41922000Y-73588000D02*
X41922000Y-80588000D01*
X41922000Y-80588000D02*
X38522000Y-80588000D01*
X38522000Y-73588000D02*
X38522000Y-80588000D01*
X41922000Y-73588000D02*
X38522000Y-73588000D01*
D12*
%TO.C,L1*%
X79987000Y-63213000D02*
X63617000Y-63213000D01*
X79987000Y-79583000D02*
X63617000Y-79583000D01*
X79987000Y-63213000D02*
X79987000Y-79583000D01*
X63617000Y-63213000D02*
X63617000Y-79583000D01*
%TO.C,R2*%
X132000000Y-49640000D02*
X132000000Y-43100000D01*
X134410000Y-49640000D02*
X134740000Y-49640000D01*
X134740000Y-43100000D02*
X134410000Y-43100000D01*
X132000000Y-43100000D02*
X132330000Y-43100000D01*
X132330000Y-49640000D02*
X132000000Y-49640000D01*
X134740000Y-49640000D02*
X134740000Y-43100000D01*
%TO.C,R3*%
X127052000Y-54852000D02*
X127052000Y-54522000D01*
X133592000Y-52112000D02*
X127052000Y-52112000D01*
X133592000Y-52442000D02*
X133592000Y-52112000D01*
X127052000Y-52112000D02*
X127052000Y-52442000D01*
X133592000Y-54852000D02*
X127052000Y-54852000D01*
X133592000Y-54522000D02*
X133592000Y-54852000D01*
%TO.C,R4*%
X127052000Y-69384000D02*
X133592000Y-69384000D01*
X133592000Y-72124000D02*
X133592000Y-71794000D01*
X127052000Y-69714000D02*
X127052000Y-69384000D01*
X133592000Y-69384000D02*
X133592000Y-69714000D01*
X127052000Y-72124000D02*
X133592000Y-72124000D01*
X127052000Y-71794000D02*
X127052000Y-72124000D01*
%TO.C,R5*%
X128766000Y-73448000D02*
X122226000Y-73448000D01*
X122226000Y-73448000D02*
X122226000Y-73778000D01*
X128766000Y-73778000D02*
X128766000Y-73448000D01*
X128766000Y-75858000D02*
X128766000Y-76188000D01*
X128766000Y-76188000D02*
X122226000Y-76188000D01*
X122226000Y-76188000D02*
X122226000Y-75858000D01*
%TO.C,R6*%
X122226000Y-94222000D02*
X128766000Y-94222000D01*
X128766000Y-94222000D02*
X128766000Y-93892000D01*
X128766000Y-91482000D02*
X128766000Y-91812000D01*
X122226000Y-93892000D02*
X122226000Y-94222000D01*
X122226000Y-91812000D02*
X122226000Y-91482000D01*
X122226000Y-91482000D02*
X128766000Y-91482000D01*
%TO.C,R7*%
X114796000Y-54522000D02*
X114796000Y-54852000D01*
X108256000Y-52112000D02*
X108256000Y-52442000D01*
X114796000Y-52112000D02*
X108256000Y-52112000D01*
X114796000Y-52442000D02*
X114796000Y-52112000D01*
X108256000Y-54852000D02*
X108256000Y-54522000D01*
X114796000Y-54852000D02*
X108256000Y-54852000D01*
%TO.C,R8*%
X114796000Y-72124000D02*
X114796000Y-71794000D01*
X108256000Y-69384000D02*
X114796000Y-69384000D01*
X108256000Y-69714000D02*
X108256000Y-69384000D01*
X108256000Y-72124000D02*
X114796000Y-72124000D01*
X114796000Y-69384000D02*
X114796000Y-69714000D01*
X108256000Y-71794000D02*
X108256000Y-72124000D01*
%TO.C,R9*%
X109970000Y-76188000D02*
X103430000Y-76188000D01*
X109970000Y-73778000D02*
X109970000Y-73448000D01*
X103430000Y-73448000D02*
X103430000Y-73778000D01*
X109970000Y-75858000D02*
X109970000Y-76188000D01*
X109970000Y-73448000D02*
X103430000Y-73448000D01*
X103430000Y-76188000D02*
X103430000Y-75858000D01*
%TO.C,R10*%
X103430000Y-91304000D02*
X103430000Y-90974000D01*
X109970000Y-93714000D02*
X109970000Y-93384000D01*
X109970000Y-90974000D02*
X109970000Y-91304000D01*
X103430000Y-93714000D02*
X109970000Y-93714000D01*
X103430000Y-90974000D02*
X109970000Y-90974000D01*
X103430000Y-93384000D02*
X103430000Y-93714000D01*
%TO.C,R11*%
X89460000Y-54852000D02*
X89460000Y-54522000D01*
X96000000Y-52442000D02*
X96000000Y-52112000D01*
X96000000Y-54522000D02*
X96000000Y-54852000D01*
X96000000Y-52112000D02*
X89460000Y-52112000D01*
X89460000Y-52112000D02*
X89460000Y-52442000D01*
X96000000Y-54852000D02*
X89460000Y-54852000D01*
%TO.C,R12*%
X89460000Y-71794000D02*
X89460000Y-72124000D01*
X89460000Y-69384000D02*
X96000000Y-69384000D01*
X96000000Y-72124000D02*
X96000000Y-71794000D01*
X96000000Y-69384000D02*
X96000000Y-69714000D01*
X89460000Y-69714000D02*
X89460000Y-69384000D01*
X89460000Y-72124000D02*
X96000000Y-72124000D01*
%TO.C,R13*%
X84380000Y-73448000D02*
X84380000Y-73778000D01*
X90920000Y-76188000D02*
X84380000Y-76188000D01*
X84380000Y-76188000D02*
X84380000Y-75858000D01*
X90920000Y-73448000D02*
X84380000Y-73448000D01*
X90920000Y-73778000D02*
X90920000Y-73448000D01*
X90920000Y-75858000D02*
X90920000Y-76188000D01*
%TO.C,R14*%
X84380000Y-90720000D02*
X90920000Y-90720000D01*
X84380000Y-91050000D02*
X84380000Y-90720000D01*
X90920000Y-93460000D02*
X90920000Y-93130000D01*
X84380000Y-93130000D02*
X84380000Y-93460000D01*
X84380000Y-93460000D02*
X90920000Y-93460000D01*
X90920000Y-90720000D02*
X90920000Y-91050000D01*
%TO.C,SW1*%
X115752000Y-48038000D02*
X115752000Y-49338000D01*
X115752000Y-49338000D02*
X114452000Y-49338000D01*
X103502000Y-41688000D02*
X113402000Y-41688000D01*
X113402000Y-48388000D02*
X103502000Y-48388000D01*
X115452000Y-42438000D02*
X115452000Y-47638000D01*
X101452000Y-47638000D02*
X101452000Y-42438000D01*
%TO.C,U1*%
X64322000Y-50678000D02*
X64322000Y-55319000D01*
X61967000Y-55319000D02*
X64322000Y-55319000D01*
X62602000Y-55319000D02*
X62602000Y-57933000D01*
X54081000Y-52187000D02*
X64322000Y-52187000D01*
X61052000Y-50678000D02*
X61052000Y-52187000D01*
X54081000Y-50678000D02*
X54081000Y-55319000D01*
X54081000Y-50678000D02*
X64322000Y-50678000D01*
X57352000Y-50678000D02*
X57352000Y-52187000D01*
X54081000Y-55319000D02*
X56437000Y-55319000D01*
X55802000Y-55319000D02*
X55802000Y-57949000D01*
X59202000Y-55319000D02*
X59202000Y-57933000D01*
X58567000Y-55319000D02*
X59837000Y-55319000D01*
%TO.C,U2*%
X135462000Y-61118000D02*
G75*
G03*
X135462000Y-63118000I0J-1000000D01*
G01*
X135522000Y-56868000D02*
X127662000Y-56868000D01*
X127662000Y-67368000D02*
X135522000Y-67368000D01*
X135462000Y-61118000D02*
X135462000Y-59868000D01*
X127722000Y-59868000D02*
X127722000Y-64368000D01*
X135522000Y-67368000D02*
X135522000Y-56868000D01*
X127662000Y-56868000D02*
X127662000Y-67368000D01*
X135462000Y-64368000D02*
X135462000Y-63118000D01*
X135462000Y-59868000D02*
X127722000Y-59868000D01*
X127722000Y-64368000D02*
X135462000Y-64368000D01*
%TO.C,U3*%
X130636000Y-82708000D02*
G75*
G03*
X130636000Y-84708000I0J-1000000D01*
G01*
X122896000Y-81458000D02*
X122896000Y-85958000D01*
X130696000Y-88958000D02*
X130696000Y-78458000D01*
X122836000Y-78458000D02*
X122836000Y-88958000D01*
X130636000Y-81458000D02*
X122896000Y-81458000D01*
X122896000Y-85958000D02*
X130636000Y-85958000D01*
X130636000Y-85958000D02*
X130636000Y-84708000D01*
X130696000Y-78458000D02*
X122836000Y-78458000D01*
X130636000Y-82708000D02*
X130636000Y-81458000D01*
X122836000Y-88958000D02*
X130696000Y-88958000D01*
%TO.C,U4*%
X116666000Y-61118000D02*
G75*
G03*
X116666000Y-63118000I0J-1000000D01*
G01*
X116726000Y-56868000D02*
X108866000Y-56868000D01*
X116666000Y-64368000D02*
X116666000Y-63118000D01*
X108866000Y-67368000D02*
X116726000Y-67368000D01*
X108866000Y-56868000D02*
X108866000Y-67368000D01*
X116666000Y-61118000D02*
X116666000Y-59868000D01*
X108926000Y-59868000D02*
X108926000Y-64368000D01*
X108926000Y-64368000D02*
X116666000Y-64368000D01*
X116726000Y-67368000D02*
X116726000Y-56868000D01*
X116666000Y-59868000D02*
X108926000Y-59868000D01*
%TO.C,U5*%
X111840000Y-82708000D02*
G75*
G03*
X111840000Y-84708000I0J-1000000D01*
G01*
X111900000Y-88958000D02*
X111900000Y-78458000D01*
X104100000Y-81458000D02*
X104100000Y-85958000D01*
X111840000Y-82708000D02*
X111840000Y-81458000D01*
X104040000Y-78458000D02*
X104040000Y-88958000D01*
X104040000Y-88958000D02*
X111900000Y-88958000D01*
X111840000Y-81458000D02*
X104100000Y-81458000D01*
X111900000Y-78458000D02*
X104040000Y-78458000D01*
X104100000Y-85958000D02*
X111840000Y-85958000D01*
X111840000Y-85958000D02*
X111840000Y-84708000D01*
%TO.C,U6*%
X97870000Y-61118000D02*
G75*
G03*
X97870000Y-63118000I0J-1000000D01*
G01*
X97870000Y-61118000D02*
X97870000Y-59868000D01*
X97870000Y-59868000D02*
X90130000Y-59868000D01*
X97930000Y-67368000D02*
X97930000Y-56868000D01*
X90070000Y-67368000D02*
X97930000Y-67368000D01*
X97930000Y-56868000D02*
X90070000Y-56868000D01*
X90070000Y-56868000D02*
X90070000Y-67368000D01*
X90130000Y-64368000D02*
X97870000Y-64368000D01*
X90130000Y-59868000D02*
X90130000Y-64368000D01*
X97870000Y-64368000D02*
X97870000Y-63118000D01*
%TO.C,U7*%
X92790000Y-82454000D02*
G75*
G03*
X92790000Y-84454000I0J-1000000D01*
G01*
X92790000Y-82454000D02*
X92790000Y-81204000D01*
X92790000Y-85704000D02*
X92790000Y-84454000D01*
X85050000Y-85704000D02*
X92790000Y-85704000D01*
X85050000Y-81204000D02*
X85050000Y-85704000D01*
X84990000Y-88704000D02*
X92850000Y-88704000D01*
X92850000Y-78204000D02*
X84990000Y-78204000D01*
X84990000Y-78204000D02*
X84990000Y-88704000D01*
X92790000Y-81204000D02*
X85050000Y-81204000D01*
X92850000Y-88704000D02*
X92850000Y-78204000D01*
%TO.C,D3*%
X123424000Y-45608000D02*
G75*
G03*
X123424000Y-45608000I-2500000J0D01*
G01*
X120924462Y-42618000D02*
G75*
G03*
X119379170Y-48168000I-462J-2990000D01*
G01*
X122468830Y-48168000D02*
G75*
G03*
X120923538Y-42618000I-1544830J2560000D01*
G01*
X119379000Y-48168000D02*
X122469000Y-48168000D01*
%TO.C,R1*%
X127174000Y-43100000D02*
X127504000Y-43100000D01*
X129914000Y-49640000D02*
X129914000Y-43100000D01*
X127174000Y-49640000D02*
X127174000Y-43100000D01*
X127504000Y-49640000D02*
X127174000Y-49640000D01*
X129584000Y-49640000D02*
X129914000Y-49640000D01*
X129914000Y-43100000D02*
X129584000Y-43100000D01*
%TO.C,R15*%
X38712000Y-69378000D02*
X38712000Y-62838000D01*
X41452000Y-62838000D02*
X41122000Y-62838000D01*
X41122000Y-69378000D02*
X41452000Y-69378000D01*
X38712000Y-62838000D02*
X39042000Y-62838000D01*
X39042000Y-69378000D02*
X38712000Y-69378000D01*
X41452000Y-69378000D02*
X41452000Y-62838000D01*
%TO.C,R16*%
X89462000Y-47218000D02*
X89462000Y-47548000D01*
X96002000Y-47218000D02*
X89462000Y-47218000D01*
X96002000Y-47548000D02*
X96002000Y-47218000D01*
X96002000Y-49628000D02*
X96002000Y-49958000D01*
X96002000Y-49958000D02*
X89462000Y-49958000D01*
X89462000Y-49958000D02*
X89462000Y-49628000D01*
%TO.C,TP3*%
X135780000Y-79930000D02*
G75*
G03*
X135780000Y-79930000I-1200000J0D01*
G01*
%TO.C,TP1*%
X52810000Y-61050000D02*
G75*
G03*
X52810000Y-61050000I-1200000J0D01*
G01*
%TO.C,TP2*%
X103672000Y-54118000D02*
G75*
G03*
X103672000Y-54118000I-1200000J0D01*
G01*
%TD*%
D13*
%TO.C,RP1*%
X97550000Y-42570000D03*
X97550000Y-91570000D03*
X39550000Y-91570000D03*
X39550000Y-42570000D03*
%TD*%
M02*
