%TF.GenerationSoftware,KiCad,Pcbnew,(6.0.11-0)*%
%TF.CreationDate,2023-02-13T11:09:09-07:00*%
%TF.ProjectId,Pi20,50693230-2e6b-4696-9361-645f70636258,rev?*%
%TF.SameCoordinates,Original*%
%TF.FileFunction,Copper,L1,Top*%
%TF.FilePolarity,Positive*%
%FSLAX46Y46*%
G04 Gerber Fmt 4.6, Leading zero omitted, Abs format (unit mm)*
G04 Created by KiCad (PCBNEW (6.0.11-0)) date 2023-02-13 11:09:09*
%MOMM*%
%LPD*%
G01*
G04 APERTURE LIST*
G04 Aperture macros list*
%AMRoundRect*
0 Rectangle with rounded corners*
0 $1 Rounding radius*
0 $2 $3 $4 $5 $6 $7 $8 $9 X,Y pos of 4 corners*
0 Add a 4 corners polygon primitive as box body*
4,1,4,$2,$3,$4,$5,$6,$7,$8,$9,$2,$3,0*
0 Add four circle primitives for the rounded corners*
1,1,$1+$1,$2,$3*
1,1,$1+$1,$4,$5*
1,1,$1+$1,$6,$7*
1,1,$1+$1,$8,$9*
0 Add four rect primitives between the rounded corners*
20,1,$1+$1,$2,$3,$4,$5,0*
20,1,$1+$1,$4,$5,$6,$7,0*
20,1,$1+$1,$6,$7,$8,$9,0*
20,1,$1+$1,$8,$9,$2,$3,0*%
G04 Aperture macros list end*
%TA.AperFunction,ComponentPad*%
%ADD10C,2.400000*%
%TD*%
%TA.AperFunction,ComponentPad*%
%ADD11R,2.400000X2.400000*%
%TD*%
%TA.AperFunction,ComponentPad*%
%ADD12C,2.000000*%
%TD*%
%TA.AperFunction,ComponentPad*%
%ADD13R,2.000000X2.000000*%
%TD*%
%TA.AperFunction,ComponentPad*%
%ADD14C,2.100000*%
%TD*%
%TA.AperFunction,ComponentPad*%
%ADD15R,2.100000X2.100000*%
%TD*%
%TA.AperFunction,ComponentPad*%
%ADD16O,1.700000X1.700000*%
%TD*%
%TA.AperFunction,ComponentPad*%
%ADD17R,1.700000X1.700000*%
%TD*%
%TA.AperFunction,ComponentPad*%
%ADD18C,2.200000*%
%TD*%
%TA.AperFunction,ComponentPad*%
%ADD19R,2.200000X2.200000*%
%TD*%
%TA.AperFunction,ComponentPad*%
%ADD20O,2.400000X2.400000*%
%TD*%
%TA.AperFunction,ComponentPad*%
%ADD21C,1.800000*%
%TD*%
%TA.AperFunction,ComponentPad*%
%ADD22R,1.800000X1.800000*%
%TD*%
%TA.AperFunction,ComponentPad*%
%ADD23RoundRect,0.275000X0.625000X-0.275000X0.625000X0.275000X-0.625000X0.275000X-0.625000X-0.275000X0*%
%TD*%
%TA.AperFunction,ComponentPad*%
%ADD24R,1.800000X1.100000*%
%TD*%
%TA.AperFunction,ComponentPad*%
%ADD25C,1.600000*%
%TD*%
%TA.AperFunction,ComponentPad*%
%ADD26O,1.600000X1.600000*%
%TD*%
%TA.AperFunction,ComponentPad*%
%ADD27C,1.700000*%
%TD*%
%TA.AperFunction,ComponentPad*%
%ADD28O,1.800000X1.800000*%
%TD*%
%TA.AperFunction,ComponentPad*%
%ADD29O,1.600000X2.400000*%
%TD*%
%TA.AperFunction,ComponentPad*%
%ADD30R,1.600000X2.400000*%
%TD*%
%TA.AperFunction,SMDPad,CuDef*%
%ADD31C,2.000000*%
%TD*%
%TA.AperFunction,ViaPad*%
%ADD32C,0.800000*%
%TD*%
%TA.AperFunction,Conductor*%
%ADD33C,0.250000*%
%TD*%
%TA.AperFunction,Conductor*%
%ADD34C,0.497800*%
%TD*%
G04 APERTURE END LIST*
D10*
%TO.P,C1,2*%
%TO.N,GND*%
X44492000Y-51508000D03*
D11*
%TO.P,C1,1*%
%TO.N,+24V*%
X44492000Y-56508000D03*
%TD*%
D12*
%TO.P,C2,2*%
%TO.N,GND*%
X79612000Y-51468000D03*
D13*
%TO.P,C2,1*%
%TO.N,+5V*%
X79612000Y-56468000D03*
%TD*%
D14*
%TO.P,J1,2,Pin_2*%
%TO.N,Common*%
X51582000Y-91074000D03*
D15*
%TO.P,J1,1,Pin_1*%
%TO.N,Net-(F1-Pad2)*%
X49042000Y-91074000D03*
%TD*%
D14*
%TO.P,J2,7,Pin_7*%
%TO.N,Common*%
X74696000Y-91074000D03*
%TO.P,J2,6,Pin_6*%
%TO.N,Zone6*%
X72156000Y-91074000D03*
%TO.P,J2,5,Pin_5*%
%TO.N,Zone5*%
X69616000Y-91074000D03*
%TO.P,J2,4,Pin_4*%
%TO.N,Zone4*%
X67076000Y-91074000D03*
%TO.P,J2,3,Pin_3*%
%TO.N,Zone3*%
X64536000Y-91074000D03*
%TO.P,J2,2,Pin_2*%
%TO.N,Zone2*%
X61996000Y-91074000D03*
D15*
%TO.P,J2,1,Pin_1*%
%TO.N,Zone1*%
X59456000Y-91074000D03*
%TD*%
D16*
%TO.P,J3,40,Pin_40*%
%TO.N,unconnected-(J3-Pad40)*%
X92730000Y-41290000D03*
%TO.P,J3,39,Pin_39*%
%TO.N,GND*%
X92730000Y-43830000D03*
%TO.P,J3,38,Pin_38*%
%TO.N,unconnected-(J3-Pad38)*%
X90190000Y-41290000D03*
%TO.P,J3,37,Pin_37*%
%TO.N,unconnected-(J3-Pad37)*%
X90190000Y-43830000D03*
%TO.P,J3,36,Pin_36*%
%TO.N,unconnected-(J3-Pad36)*%
X87650000Y-41290000D03*
%TO.P,J3,35,Pin_35*%
%TO.N,unconnected-(J3-Pad35)*%
X87650000Y-43830000D03*
%TO.P,J3,34,Pin_34*%
%TO.N,GND*%
X85110000Y-41290000D03*
%TO.P,J3,33,Pin_33*%
%TO.N,unconnected-(J3-Pad33)*%
X85110000Y-43830000D03*
%TO.P,J3,32,Pin_32*%
%TO.N,unconnected-(J3-Pad32)*%
X82570000Y-41290000D03*
%TO.P,J3,31,Pin_31*%
%TO.N,unconnected-(J3-Pad31)*%
X82570000Y-43830000D03*
%TO.P,J3,30,Pin_30*%
%TO.N,GND*%
X80030000Y-41290000D03*
%TO.P,J3,29,Pin_29*%
%TO.N,unconnected-(J3-Pad29)*%
X80030000Y-43830000D03*
%TO.P,J3,28,Pin_28*%
%TO.N,unconnected-(J3-Pad28)*%
X77490000Y-41290000D03*
%TO.P,J3,27,Pin_27*%
%TO.N,unconnected-(J3-Pad27)*%
X77490000Y-43830000D03*
%TO.P,J3,26,Pin_26*%
%TO.N,unconnected-(J3-Pad26)*%
X74950000Y-41290000D03*
%TO.P,J3,25,Pin_25*%
%TO.N,GND*%
X74950000Y-43830000D03*
%TO.P,J3,24,Pin_24*%
%TO.N,unconnected-(J3-Pad24)*%
X72410000Y-41290000D03*
%TO.P,J3,23,Pin_23*%
%TO.N,Ctrl_Zone6*%
X72410000Y-43830000D03*
%TO.P,J3,22,Pin_22*%
%TO.N,unconnected-(J3-Pad22)*%
X69870000Y-41290000D03*
%TO.P,J3,21,Pin_21*%
%TO.N,Ctrl_Zone5*%
X69870000Y-43830000D03*
%TO.P,J3,20,Pin_20*%
%TO.N,GND*%
X67330000Y-41290000D03*
%TO.P,J3,19,Pin_19*%
%TO.N,Ctrl_Zone4*%
X67330000Y-43830000D03*
%TO.P,J3,18,Pin_18*%
%TO.N,unconnected-(J3-Pad18)*%
X64790000Y-41290000D03*
%TO.P,J3,17,Pin_17*%
%TO.N,+3V3*%
X64790000Y-43830000D03*
%TO.P,J3,16,Pin_16*%
%TO.N,unconnected-(J3-Pad16)*%
X62250000Y-41290000D03*
%TO.P,J3,15,Pin_15*%
%TO.N,Ctrl_Zone3*%
X62250000Y-43830000D03*
%TO.P,J3,14,Pin_14*%
%TO.N,GND*%
X59710000Y-41290000D03*
%TO.P,J3,13,Pin_13*%
%TO.N,Ctrl_Zone2*%
X59710000Y-43830000D03*
%TO.P,J3,12,Pin_12*%
%TO.N,unconnected-(J3-Pad12)*%
X57170000Y-41290000D03*
%TO.P,J3,11,Pin_11*%
%TO.N,Ctrl_Zone1*%
X57170000Y-43830000D03*
%TO.P,J3,10,Pin_10*%
%TO.N,unconnected-(J3-Pad10)*%
X54630000Y-41290000D03*
%TO.P,J3,9,Pin_9*%
%TO.N,GND*%
X54630000Y-43830000D03*
%TO.P,J3,8,Pin_8*%
%TO.N,unconnected-(J3-Pad8)*%
X52090000Y-41290000D03*
%TO.P,J3,7,Pin_7*%
%TO.N,unconnected-(J3-Pad7)*%
X52090000Y-43830000D03*
%TO.P,J3,6,Pin_6*%
%TO.N,GND*%
X49550000Y-41290000D03*
%TO.P,J3,5,Pin_5*%
%TO.N,unconnected-(J3-Pad5)*%
X49550000Y-43830000D03*
%TO.P,J3,4,Pin_4*%
%TO.N,+5V*%
X47010000Y-41290000D03*
%TO.P,J3,3,Pin_3*%
%TO.N,unconnected-(J3-Pad3)*%
X47010000Y-43830000D03*
%TO.P,J3,2,Pin_2*%
%TO.N,+5V*%
X44470000Y-41290000D03*
D17*
%TO.P,J3,1,Pin_1*%
%TO.N,+3V3*%
X44470000Y-43830000D03*
%TD*%
D18*
%TO.P,D1,4*%
%TO.N,+24VAC*%
X57822000Y-66178000D03*
%TO.P,D1,3,-*%
%TO.N,GND*%
X57822000Y-76678000D03*
%TO.P,D1,2*%
%TO.N,Common*%
X47422000Y-76678000D03*
D19*
%TO.P,D1,1,+*%
%TO.N,+24V*%
X47322000Y-66178000D03*
%TD*%
D20*
%TO.P,D2,2,A*%
%TO.N,GND*%
X68852000Y-53778000D03*
D11*
%TO.P,D2,1,K*%
%TO.N,Net-(D2-Pad1)*%
X68852000Y-58858000D03*
%TD*%
D21*
%TO.P,D4,2,A*%
%TO.N,Net-(D4-Pad2)*%
X120924000Y-51196000D03*
D22*
%TO.P,D4,1,K*%
%TO.N,GND*%
X120924000Y-53736000D03*
%TD*%
D23*
%TO.P,D5,3,A1*%
%TO.N,Zone1*%
X124372000Y-60848000D03*
%TO.P,D5,2,G*%
%TO.N,Net-(D5-Pad2)*%
X122302000Y-62118000D03*
D24*
%TO.P,D5,1,A2*%
%TO.N,+24VAC*%
X124372000Y-63388000D03*
%TD*%
D23*
%TO.P,D6,3,A1*%
%TO.N,Zone4*%
X119546000Y-82438000D03*
%TO.P,D6,2,G*%
%TO.N,Net-(D6-Pad2)*%
X117476000Y-83708000D03*
D24*
%TO.P,D6,1,A2*%
%TO.N,+24VAC*%
X119546000Y-84978000D03*
%TD*%
D23*
%TO.P,D7,3,A1*%
%TO.N,Zone2*%
X105576000Y-60848000D03*
%TO.P,D7,2,G*%
%TO.N,Net-(D7-Pad2)*%
X103506000Y-62118000D03*
D24*
%TO.P,D7,1,A2*%
%TO.N,+24VAC*%
X105576000Y-63388000D03*
%TD*%
D23*
%TO.P,D8,3,A1*%
%TO.N,Zone5*%
X100750000Y-82438000D03*
%TO.P,D8,2,G*%
%TO.N,Net-(D8-Pad2)*%
X98680000Y-83708000D03*
D24*
%TO.P,D8,1,A2*%
%TO.N,+24VAC*%
X100750000Y-84978000D03*
%TD*%
D23*
%TO.P,D9,3,A1*%
%TO.N,Zone3*%
X86780000Y-60848000D03*
%TO.P,D9,2,G*%
%TO.N,Net-(D9-Pad2)*%
X84710000Y-62118000D03*
D24*
%TO.P,D9,1,A2*%
%TO.N,+24VAC*%
X86780000Y-63388000D03*
%TD*%
D23*
%TO.P,D10,3,A1*%
%TO.N,Zone6*%
X81700000Y-82184000D03*
%TO.P,D10,2,G*%
%TO.N,Net-(D10-Pad2)*%
X79630000Y-83454000D03*
D24*
%TO.P,D10,1,A2*%
%TO.N,+24VAC*%
X81700000Y-84724000D03*
%TD*%
D25*
%TO.P,F1,2*%
%TO.N,Net-(F1-Pad2)*%
X39572000Y-79588000D03*
%TO.P,F1,1*%
%TO.N,+24VAC*%
X40872000Y-74588000D03*
%TD*%
D12*
%TO.P,L1,2,2*%
%TO.N,Net-(D2-Pad1)*%
X78152000Y-75208000D03*
%TO.P,L1,1,1*%
%TO.N,+5V*%
X65452000Y-67588000D03*
%TD*%
D26*
%TO.P,R2,2*%
%TO.N,Net-(D4-Pad2)*%
X133370000Y-42560000D03*
D25*
%TO.P,R2,1*%
%TO.N,+3V3*%
X133370000Y-50180000D03*
%TD*%
D26*
%TO.P,R3,2*%
%TO.N,Ctrl_Zone1*%
X126512000Y-53482000D03*
D25*
%TO.P,R3,1*%
%TO.N,Net-(R3-Pad1)*%
X134132000Y-53482000D03*
%TD*%
D26*
%TO.P,R4,2*%
%TO.N,Net-(R4-Pad2)*%
X134132000Y-70754000D03*
D25*
%TO.P,R4,1*%
%TO.N,+24VAC*%
X126512000Y-70754000D03*
%TD*%
D26*
%TO.P,R5,2*%
%TO.N,Ctrl_Zone4*%
X121686000Y-74818000D03*
D25*
%TO.P,R5,1*%
%TO.N,Net-(R5-Pad1)*%
X129306000Y-74818000D03*
%TD*%
D26*
%TO.P,R6,2*%
%TO.N,Net-(R6-Pad2)*%
X129306000Y-92852000D03*
D25*
%TO.P,R6,1*%
%TO.N,+24VAC*%
X121686000Y-92852000D03*
%TD*%
D26*
%TO.P,R7,2*%
%TO.N,Ctrl_Zone2*%
X107716000Y-53482000D03*
D25*
%TO.P,R7,1*%
%TO.N,Net-(R7-Pad1)*%
X115336000Y-53482000D03*
%TD*%
D26*
%TO.P,R8,2*%
%TO.N,Net-(R8-Pad2)*%
X115336000Y-70754000D03*
D25*
%TO.P,R8,1*%
%TO.N,+24VAC*%
X107716000Y-70754000D03*
%TD*%
D26*
%TO.P,R9,2*%
%TO.N,Ctrl_Zone5*%
X102890000Y-74818000D03*
D25*
%TO.P,R9,1*%
%TO.N,Net-(R9-Pad1)*%
X110510000Y-74818000D03*
%TD*%
D26*
%TO.P,R10,2*%
%TO.N,Net-(R10-Pad2)*%
X110510000Y-92344000D03*
D25*
%TO.P,R10,1*%
%TO.N,+24VAC*%
X102890000Y-92344000D03*
%TD*%
D26*
%TO.P,R11,2*%
%TO.N,Ctrl_Zone3*%
X88920000Y-53482000D03*
D25*
%TO.P,R11,1*%
%TO.N,Net-(R11-Pad1)*%
X96540000Y-53482000D03*
%TD*%
D26*
%TO.P,R12,2*%
%TO.N,Net-(R12-Pad2)*%
X96540000Y-70754000D03*
D25*
%TO.P,R12,1*%
%TO.N,+24VAC*%
X88920000Y-70754000D03*
%TD*%
D26*
%TO.P,R13,2*%
%TO.N,Ctrl_Zone6*%
X83840000Y-74818000D03*
D25*
%TO.P,R13,1*%
%TO.N,Net-(R13-Pad1)*%
X91460000Y-74818000D03*
%TD*%
D26*
%TO.P,R14,2*%
%TO.N,Net-(R14-Pad2)*%
X91460000Y-92090000D03*
D25*
%TO.P,R14,1*%
%TO.N,+24VAC*%
X83840000Y-92090000D03*
%TD*%
D27*
%TO.P,SW1,3,C*%
%TO.N,GND*%
X104452000Y-46288000D03*
%TO.P,SW1,2,B*%
%TO.N,Net-(SW1-Pad2)*%
X108452000Y-46288000D03*
%TO.P,SW1,1,A*%
%TO.N,Net-(R15-Pad2)*%
X112452000Y-46288000D03*
D12*
%TO.P,SW1,*%
%TO.N,*%
X114452000Y-48038000D03*
X114452000Y-42038000D03*
X102452000Y-42038000D03*
X102452000Y-48038000D03*
%TD*%
D28*
%TO.P,U1,5,~{ON}/OFF*%
%TO.N,Net-(SW1-Pad2)*%
X62602000Y-58998000D03*
%TO.P,U1,4,FB*%
%TO.N,+5V*%
X60902000Y-55298000D03*
%TO.P,U1,3,GND*%
%TO.N,GND*%
X59202000Y-58998000D03*
%TO.P,U1,2,OUT*%
%TO.N,Net-(D2-Pad1)*%
X57502000Y-55298000D03*
D22*
%TO.P,U1,1,VIN*%
%TO.N,+24V*%
X55802000Y-58998000D03*
%TD*%
D29*
%TO.P,U2,6*%
%TO.N,Net-(R4-Pad2)*%
X134132000Y-65928000D03*
%TO.P,U2,5,NC*%
%TO.N,unconnected-(U2-Pad5)*%
X131592000Y-65928000D03*
%TO.P,U2,4*%
%TO.N,Net-(D5-Pad2)*%
X129052000Y-65928000D03*
%TO.P,U2,3,NC*%
%TO.N,unconnected-(U2-Pad3)*%
X129052000Y-58308000D03*
%TO.P,U2,2*%
%TO.N,GND*%
X131592000Y-58308000D03*
D30*
%TO.P,U2,1*%
%TO.N,Net-(R3-Pad1)*%
X134132000Y-58308000D03*
%TD*%
D29*
%TO.P,U3,6*%
%TO.N,Net-(R6-Pad2)*%
X129306000Y-87518000D03*
%TO.P,U3,5,NC*%
%TO.N,unconnected-(U3-Pad5)*%
X126766000Y-87518000D03*
%TO.P,U3,4*%
%TO.N,Net-(D6-Pad2)*%
X124226000Y-87518000D03*
%TO.P,U3,3,NC*%
%TO.N,unconnected-(U3-Pad3)*%
X124226000Y-79898000D03*
%TO.P,U3,2*%
%TO.N,GND*%
X126766000Y-79898000D03*
D30*
%TO.P,U3,1*%
%TO.N,Net-(R5-Pad1)*%
X129306000Y-79898000D03*
%TD*%
D29*
%TO.P,U4,6*%
%TO.N,Net-(R8-Pad2)*%
X115336000Y-65928000D03*
%TO.P,U4,5,NC*%
%TO.N,unconnected-(U4-Pad5)*%
X112796000Y-65928000D03*
%TO.P,U4,4*%
%TO.N,Net-(D7-Pad2)*%
X110256000Y-65928000D03*
%TO.P,U4,3,NC*%
%TO.N,unconnected-(U4-Pad3)*%
X110256000Y-58308000D03*
%TO.P,U4,2*%
%TO.N,GND*%
X112796000Y-58308000D03*
D30*
%TO.P,U4,1*%
%TO.N,Net-(R7-Pad1)*%
X115336000Y-58308000D03*
%TD*%
D29*
%TO.P,U5,6*%
%TO.N,Net-(R10-Pad2)*%
X110510000Y-87518000D03*
%TO.P,U5,5,NC*%
%TO.N,unconnected-(U5-Pad5)*%
X107970000Y-87518000D03*
%TO.P,U5,4*%
%TO.N,Net-(D8-Pad2)*%
X105430000Y-87518000D03*
%TO.P,U5,3,NC*%
%TO.N,unconnected-(U5-Pad3)*%
X105430000Y-79898000D03*
%TO.P,U5,2*%
%TO.N,GND*%
X107970000Y-79898000D03*
D30*
%TO.P,U5,1*%
%TO.N,Net-(R9-Pad1)*%
X110510000Y-79898000D03*
%TD*%
D29*
%TO.P,U6,6*%
%TO.N,Net-(R12-Pad2)*%
X96540000Y-65928000D03*
%TO.P,U6,5,NC*%
%TO.N,unconnected-(U6-Pad5)*%
X94000000Y-65928000D03*
%TO.P,U6,4*%
%TO.N,Net-(D9-Pad2)*%
X91460000Y-65928000D03*
%TO.P,U6,3,NC*%
%TO.N,unconnected-(U6-Pad3)*%
X91460000Y-58308000D03*
%TO.P,U6,2*%
%TO.N,GND*%
X94000000Y-58308000D03*
D30*
%TO.P,U6,1*%
%TO.N,Net-(R11-Pad1)*%
X96540000Y-58308000D03*
%TD*%
D29*
%TO.P,U7,6*%
%TO.N,Net-(R14-Pad2)*%
X91460000Y-87264000D03*
%TO.P,U7,5,NC*%
%TO.N,unconnected-(U7-Pad5)*%
X88920000Y-87264000D03*
%TO.P,U7,4*%
%TO.N,Net-(D10-Pad2)*%
X86380000Y-87264000D03*
%TO.P,U7,3,NC*%
%TO.N,unconnected-(U7-Pad3)*%
X86380000Y-79644000D03*
%TO.P,U7,2*%
%TO.N,GND*%
X88920000Y-79644000D03*
D30*
%TO.P,U7,1*%
%TO.N,Net-(R13-Pad1)*%
X91460000Y-79644000D03*
%TD*%
D21*
%TO.P,D3,2,A*%
%TO.N,Net-(D3-Pad2)*%
X120924000Y-44338000D03*
D22*
%TO.P,D3,1,K*%
%TO.N,GND*%
X120924000Y-46878000D03*
%TD*%
D26*
%TO.P,R1,2*%
%TO.N,Net-(D3-Pad2)*%
X128544000Y-42560000D03*
D25*
%TO.P,R1,1*%
%TO.N,+5V*%
X128544000Y-50180000D03*
%TD*%
D26*
%TO.P,R15,2*%
%TO.N,Net-(R15-Pad2)*%
X40082000Y-62298000D03*
D25*
%TO.P,R15,1*%
%TO.N,+24V*%
X40082000Y-69918000D03*
%TD*%
D26*
%TO.P,R16,2*%
%TO.N,GND*%
X88922000Y-48588000D03*
D25*
%TO.P,R16,1*%
%TO.N,Net-(R15-Pad2)*%
X96542000Y-48588000D03*
%TD*%
D31*
%TO.P,TP3,1,1*%
%TO.N,GND*%
X134580000Y-79930000D03*
%TD*%
%TO.P,TP1,1,1*%
%TO.N,+24V*%
X51610000Y-61050000D03*
%TD*%
%TO.P,TP2,1,1*%
%TO.N,+5V*%
X102472000Y-54118000D03*
%TD*%
D32*
%TO.N,Ctrl_Zone2*%
X91173700Y-53597700D03*
%TO.N,Ctrl_Zone4*%
X76784300Y-45783600D03*
%TO.N,Ctrl_Zone5*%
X81620100Y-64404800D03*
%TD*%
D33*
%TO.N,Net-(SW1-Pad2)*%
X107889500Y-46288000D02*
X108452000Y-46288000D01*
X98645000Y-55532500D02*
X107889500Y-46288000D01*
X81186700Y-55532500D02*
X98645000Y-55532500D01*
X80796900Y-55142700D02*
X81186700Y-55532500D01*
X78477200Y-55142700D02*
X80796900Y-55142700D01*
X73236500Y-60383400D02*
X78477200Y-55142700D01*
X65212700Y-60383400D02*
X73236500Y-60383400D01*
X63827300Y-58998000D02*
X65212700Y-60383400D01*
X62602000Y-58998000D02*
X63827300Y-58998000D01*
%TO.N,Net-(R15-Pad2)*%
X96542000Y-49255200D02*
X96542000Y-48588000D01*
X90739200Y-55058000D02*
X96542000Y-49255200D01*
X87229200Y-55058000D02*
X90739200Y-55058000D01*
X86778900Y-54607700D02*
X87229200Y-55058000D01*
X79197600Y-54607700D02*
X86778900Y-54607700D01*
X76822500Y-52232600D02*
X79197600Y-54607700D01*
X58295800Y-52232600D02*
X76822500Y-52232600D01*
X48230400Y-62298000D02*
X58295800Y-52232600D01*
X40082000Y-62298000D02*
X48230400Y-62298000D01*
X111258000Y-45094000D02*
X112452000Y-46288000D01*
X100036000Y-45094000D02*
X111258000Y-45094000D01*
X96542000Y-48588000D02*
X100036000Y-45094000D01*
%TO.N,+24V*%
X47322000Y-66178000D02*
X47322000Y-64752700D01*
X55802000Y-58998000D02*
X54576700Y-58998000D01*
X47907300Y-64752700D02*
X51610000Y-61050000D01*
X47322000Y-64752700D02*
X47907300Y-64752700D01*
X52524700Y-61050000D02*
X54576700Y-58998000D01*
X51610000Y-61050000D02*
X52524700Y-61050000D01*
%TO.N,+3V3*%
X65965300Y-43462600D02*
X65965300Y-43830000D01*
X66773200Y-42654700D02*
X65965300Y-43462600D01*
X94599400Y-42654700D02*
X66773200Y-42654700D01*
X96242400Y-44297700D02*
X94599400Y-42654700D01*
X115862700Y-44297700D02*
X96242400Y-44297700D01*
X117217600Y-45652600D02*
X115862700Y-44297700D01*
X128842600Y-45652600D02*
X117217600Y-45652600D01*
X133370000Y-50180000D02*
X128842600Y-45652600D01*
X64790000Y-43830000D02*
X65965300Y-43830000D01*
X63614700Y-43462600D02*
X63614700Y-43830000D01*
X62806800Y-42654700D02*
X63614700Y-43462600D01*
X46453300Y-42654700D02*
X62806800Y-42654700D01*
X45645300Y-43462700D02*
X46453300Y-42654700D01*
X45645300Y-43830000D02*
X45645300Y-43462700D01*
X44470000Y-43830000D02*
X45645300Y-43830000D01*
X64790000Y-43830000D02*
X63614700Y-43830000D01*
%TO.N,Net-(D2-Pad1)*%
X65801400Y-57332700D02*
X67326700Y-58858000D01*
X60762000Y-57332700D02*
X65801400Y-57332700D01*
X58727300Y-55298000D02*
X60762000Y-57332700D01*
X57502000Y-55298000D02*
X58727300Y-55298000D01*
X68852000Y-58858000D02*
X67326700Y-58858000D01*
%TO.N,Net-(D8-Pad2)*%
X99080000Y-85219800D02*
X99080000Y-83708000D01*
X101378200Y-87518000D02*
X99080000Y-85219800D01*
X105430000Y-87518000D02*
X101378200Y-87518000D01*
%TO.N,Net-(D3-Pad2)*%
X122702000Y-42560000D02*
X120924000Y-44338000D01*
X128544000Y-42560000D02*
X122702000Y-42560000D01*
%TO.N,Ctrl_Zone2*%
X59710000Y-43830000D02*
X60885300Y-43830000D01*
X90163700Y-54607700D02*
X91173700Y-53597700D01*
X87641100Y-54607700D02*
X90163700Y-54607700D01*
X82724500Y-49691100D02*
X87641100Y-54607700D01*
X66379100Y-49691100D02*
X82724500Y-49691100D01*
X60885300Y-44197300D02*
X66379100Y-49691100D01*
X60885300Y-43830000D02*
X60885300Y-44197300D01*
%TO.N,Ctrl_Zone3*%
X88920000Y-53482000D02*
X87794700Y-53482000D01*
X81688500Y-47375800D02*
X87794700Y-53482000D01*
X65795800Y-47375800D02*
X81688500Y-47375800D01*
X62250000Y-43830000D02*
X65795800Y-47375800D01*
%TO.N,Ctrl_Zone4*%
X67330000Y-43830000D02*
X68505300Y-43830000D01*
X68505300Y-44197400D02*
X68505300Y-43830000D01*
X70091500Y-45783600D02*
X68505300Y-44197400D01*
X76784300Y-45783600D02*
X70091500Y-45783600D01*
%TO.N,Ctrl_Zone5*%
X85019700Y-64404800D02*
X81620100Y-64404800D01*
X95432900Y-74818000D02*
X85019700Y-64404800D01*
X102890000Y-74818000D02*
X95432900Y-74818000D01*
D34*
%TO.N,Zone1*%
X73872700Y-76657300D02*
X59456000Y-91074000D01*
X113206000Y-76657300D02*
X73872700Y-76657300D01*
X125731900Y-64131400D02*
X113206000Y-76657300D01*
X125731900Y-62607900D02*
X125731900Y-64131400D01*
X123972000Y-60848000D02*
X125731900Y-62607900D01*
%TO.N,Zone4*%
X72426700Y-85723300D02*
X67076000Y-91074000D01*
X82957600Y-85723300D02*
X72426700Y-85723300D01*
X87276000Y-81404900D02*
X82957600Y-85723300D01*
X104147900Y-81404900D02*
X87276000Y-81404900D01*
X105181000Y-82438000D02*
X104147900Y-81404900D01*
X119146000Y-82438000D02*
X105181000Y-82438000D01*
%TO.N,Zone5*%
X87349700Y-82438000D02*
X100350000Y-82438000D01*
X82413100Y-87374600D02*
X87349700Y-82438000D01*
X73315400Y-87374600D02*
X82413100Y-87374600D01*
X69616000Y-91074000D02*
X73315400Y-87374600D01*
D33*
%TO.N,+5V*%
X104303200Y-52286800D02*
X102472000Y-54118000D01*
X117266100Y-52286800D02*
X104303200Y-52286800D01*
X117412900Y-52433600D02*
X117266100Y-52286800D01*
X123520600Y-52433600D02*
X117412900Y-52433600D01*
X125774200Y-50180000D02*
X123520600Y-52433600D01*
X128544000Y-50180000D02*
X125774200Y-50180000D01*
X100122000Y-56468000D02*
X79612000Y-56468000D01*
X102472000Y-54118000D02*
X100122000Y-56468000D01*
X44470000Y-41290000D02*
X47010000Y-41290000D01*
D34*
%TO.N,Common*%
X73190500Y-92579500D02*
X74696000Y-91074000D01*
X53087500Y-92579500D02*
X73190500Y-92579500D01*
X51582000Y-91074000D02*
X53087500Y-92579500D01*
X51582000Y-80838000D02*
X51582000Y-91074000D01*
X47422000Y-76678000D02*
X51582000Y-80838000D01*
%TO.N,+24VAC*%
X105176000Y-63388000D02*
X123972000Y-63388000D01*
X105176000Y-63388000D02*
X86380000Y-63388000D01*
X60612000Y-63388000D02*
X57822000Y-66178000D01*
X86380000Y-63388000D02*
X60612000Y-63388000D01*
X101809800Y-93424200D02*
X102890000Y-92344000D01*
X85174200Y-93424200D02*
X101809800Y-93424200D01*
X83840000Y-92090000D02*
X85174200Y-93424200D01*
D33*
%TO.N,GND*%
X54630000Y-43830000D02*
X53454700Y-43830000D01*
X53454700Y-44132500D02*
X53454700Y-43830000D01*
X46079200Y-51508000D02*
X53454700Y-44132500D01*
X44492000Y-51508000D02*
X46079200Y-51508000D01*
X60885300Y-40922600D02*
X60885300Y-41290000D01*
X61693200Y-40114700D02*
X60885300Y-40922600D01*
X65346700Y-40114700D02*
X61693200Y-40114700D01*
X66154700Y-40922700D02*
X65346700Y-40114700D01*
X66154700Y-41290000D02*
X66154700Y-40922700D01*
X67330000Y-41290000D02*
X66154700Y-41290000D01*
X59710000Y-41290000D02*
X60885300Y-41290000D01*
X131592000Y-58308000D02*
X131592000Y-58741500D01*
X131592000Y-58741500D02*
X131592000Y-59833300D01*
X123374600Y-54961300D02*
X122149300Y-53736000D01*
X127811800Y-54961300D02*
X123374600Y-54961300D01*
X131592000Y-58741500D02*
X127811800Y-54961300D01*
X120924000Y-53736000D02*
X122149300Y-53736000D01*
X126766000Y-79898000D02*
X126766000Y-78372700D01*
X133022700Y-78372700D02*
X132757400Y-78372700D01*
X134580000Y-79930000D02*
X133022700Y-78372700D01*
X132757400Y-60998700D02*
X131592000Y-59833300D01*
X132757400Y-78372700D02*
X132757400Y-60998700D01*
X132757400Y-78372700D02*
X126766000Y-78372700D01*
X126766000Y-78372700D02*
X107970000Y-78372700D01*
X107970000Y-79898000D02*
X107970000Y-78372700D01*
X107716000Y-78118700D02*
X107970000Y-78372700D01*
X88920000Y-78118700D02*
X107716000Y-78118700D01*
X88920000Y-79644000D02*
X88920000Y-78118700D01*
%TD*%
M02*
